<?xml version="1.0" standalone="no"?>
<!DOCTYPE svg PUBLIC "-//W3C//DTD SVG 1.1//EN" "http://www.w3.org/Graphics/SVG/1.1/DTD/svg11.dtd" >
<!--
2013-9-30: Created.
-->
<svg>
<metadata>
Created by iconfont
</metadata>
<defs>

<font id="iconfont" horiz-adv-x="1024" >
  <font-face
    font-family="iconfont"
    font-weight="500"
    font-stretch="normal"
    units-per-em="1024"
    ascent="896"
    descent="-128"
  />
    <missing-glyph />
    
    <glyph glyph-name="cheliang1" unicode="&#58920;" d="M996.93568 555.22304h-95.70304c-4.59264 0-8.76544-1.34656-12.5184-3.43552L845.58848 683.008c-13.81888 74.60864-65.8432 110.592-129.78176 110.592H310.4512c-73.40032 0-117.95968-48.31744-129.78688-110.5408l-43.25888-131.64032c-3.9424 2.31936-8.39168 3.80416-13.2608 3.80416H28.3904c-14.69952 0-26.66496-12.01152-26.66496-26.90048v-23.36768c0-14.83776 11.96032-26.90048 26.66496-26.90048l36.25984-6.25664c-11.45344-22.58432-17.99168-48.4096-17.99168-78.45376l-13.39904-154.82368c0-4.50048 0.32256-9.04704 0.88064-13.68064a49.00864 49.00864 0 0 1-0.88064-8.71936v-186.25536c0-26.52672 21.32992-47.99488 47.57504-47.99488H153.4464c26.24512 0 47.52384 21.46816 47.52384 47.99488v59.85792h624.20992v-59.85792c0-26.52672 21.32992-47.99488 47.58016-47.99488h72.61184c26.24512 0 47.57504 21.46816 47.57504 47.99488v186.25536c0 3.01568-0.37376 5.9392-0.88576 8.71936 0.50688 4.63872 0.88576 9.18528 0.88576 13.68064l-13.45024 154.82368c0 30.14144-6.53312 55.96672-18.03264 78.6432l35.47136 6.07232c14.69952 0 26.61376 12.0576 26.61376 26.90048v23.36768c0.0512 14.88384-11.91424 26.89536-26.61376 26.89536zM212.6592 582.8096l31.67232 85.13536 0.46592 1.99168c3.1488 17.2032 10.19904 20.26496 20.58752 33.57696h496.04608c10.52672-13.68064 17.06496-17.15712 19.93728-33.38752l32.18432-87.31136 11.776-47.43168c-2.64192-34.73408-43.96032-62.1312-78.3616-62.1312H279.2448c-34.4064 0-75.71968 27.40224-78.40768 62.1312l11.82208 47.42656z m22.21056-404.84352c-39.7824 0-72.00768 32.55296-72.00768 72.70912 0 40.20224 32.22528 72.70912 72.00768 72.70912s72.00768-32.50688 72.00768-72.70912c0-40.15616-32.22528-72.70912-72.00768-72.70912z m402.29376 53.64736c0-11.96032-9.6-21.61152-21.47328-21.61152H413.6704c-11.8272 0-21.42208 9.64608-21.42208 21.61152V292.4032c0 11.91936 9.6 21.56032 21.42208 21.56032h202.02496a21.504 21.504 0 0 0 21.46816-21.56032v-60.78976z m154.17344-53.64736c-39.7824 0-72.05376 32.55296-72.05376 72.70912 0 40.20224 32.27136 72.70912 72.05376 72.70912s72.00768-32.50688 72.00768-72.70912c0-40.15616-32.22528-72.70912-72.00768-72.70912z m0 0"  horiz-adv-x="1024" />

    
    <glyph glyph-name="tianjiabumen1" unicode="&#58930;" d="M106.496-128c-46.592 0-84.48 37.888-84.48 84.48v207.872c0 46.592 37.888 84.48 84.48 84.48h69.632V410.112h322.56V518.656H405.504c-46.592 0-84.48 37.888-84.48 84.48V811.52C321.024 858.112 358.912 896 405.504 896h246.272c46.592 0 84.48-37.888 84.48-84.48v-207.872c0-46.592-37.888-84.48-84.48-84.48h-87.552v-108.544h308.736v-1.024h1.024v-69.12H242.688v-90.624H353.28c46.592 0 84.48-37.888 84.48-84.48v-207.872c0-46.592-37.888-84.48-84.48-84.48H106.496z m0 307.712c-8.192 0-14.848-6.656-14.848-14.848v-207.872c0-8.192 6.656-14.848 14.848-14.848h246.272c8.192 0 14.848 6.656 14.848 14.848v207.872c0 8.192-6.656 14.848-14.848 14.848H106.496zM405.504 826.368c-8.192 0-14.848-6.656-14.848-14.848v-207.872c0-8.192 6.656-14.848 14.848-14.848h246.272c8.192 0 14.848 6.656 14.848 14.848V811.52c0 8.192-6.656 14.848-14.848 14.848H405.504zM956.416 113.664h-92.672v92.672c1.024 24.064-17.92 44.544-42.496 45.568-24.064 1.024-44.544-17.92-45.568-42.496V113.664h-92.672c-24.064-1.024-43.008-20.992-42.496-45.568 1.024-23.04 19.456-41.472 42.496-42.496h92.672v-92.16c1.024-24.064 20.992-43.008 45.568-42.496 23.04 1.024 41.472 19.456 42.496 42.496v92.16h92.672c24.064-1.024 44.544 17.92 45.568 42.496 1.024 24.064-17.92 44.544-42.496 45.568h-3.072z"  horiz-adv-x="1024" />

    
    <glyph glyph-name="x-KZX" unicode="&#59105;" d="M862.37184-76.79999999999995H207.1296c-42.53696 0-76.88192 34.23232-76.88192 76.63616V870.4l-25.6-25.6h771.72736c42.34752 0 76.5696-34.21696 76.5696-76.66688V-102.39999999999998c0-14.14144 11.45344-25.6 25.6-25.6a25.6 25.6 0 0 1 25.6 25.6V768.13312C1004.14464 838.86592 947.00032 896 876.37504 896H79.04768V-0.16384000000005017c0-70.72256 57.30816-127.83616 128.08192-127.83616h655.24224a25.6 25.6 0 1 1 0 51.2zM0 561.55648c0-8.04352 11.09504-14.57152 24.77568-14.57152 13.68064 0 24.77568 6.52288 24.77568 14.57152V694.54848c0 8.04864-11.09504 14.57152-24.77568 14.57152C11.09504 709.12 0 702.592 0 694.54848v-132.992zM840.4736 254.35648000000003c0-8.04352 11.09504-14.57152 24.77568-14.57152 13.68576 0 24.77568 6.52288 24.77568 14.57152V387.34848c0 8.04352-11.08992 14.57152-24.77568 14.57152-13.68064 0-24.77568-6.528-24.77568-14.57152v-132.992zM288.97792 676.81792c0-27.904 22.62016-50.52928 50.52928-50.52928s50.52928 22.62528 50.52928 50.52928-22.62016 50.52928-50.52928 50.52928c-27.904 0-50.52928-22.62528-50.52928-50.52928zM491.0592 676.81792c0-27.904 22.62016-50.52928 50.52928-50.52928 27.904 0 50.52416 22.62528 50.52416 50.52928s-22.62016 50.52928-50.52416 50.52928-50.52928-22.62528-50.52928-50.52928zM693.1712 676.81792c-0.02048-27.904 22.58432-50.54464 50.48832-50.56512 27.90912-0.0256 50.54976 22.5792 50.57024 50.4832v0.08192c0 27.904-22.62528 50.52928-50.52928 50.52928s-50.52928-22.62528-50.52928-50.52928zM288.96256 500.60288c0-27.904 22.62016-50.52928 50.52928-50.52928s50.52928 22.62528 50.52928 50.52928-22.62016 50.52928-50.52928 50.52928c-27.904 0-50.52928-22.62016-50.52928-50.52928zM491.04384 500.60288c0-27.904 22.62016-50.52928 50.52928-50.52928 27.904 0 50.52416 22.62528 50.52416 50.52928s-22.62016 50.52928-50.52416 50.52928-50.52928-22.62016-50.52928-50.52928zM693.15584 500.60288c-0.02048-27.904 22.58432-50.54464 50.48832-50.56512 27.90912-0.0256 50.54976 22.5792 50.57024 50.4832v0.08192c0 27.904-22.62528 50.52928-50.52928 50.52928s-50.52928-22.62016-50.52928-50.52928z"  horiz-adv-x="1024" />

    
    <glyph glyph-name="yonggong" unicode="&#59087;" d="M880.76288 44.83072v-27.22816c0-56.36608-147.712-104.64256-147.712-104.64256l-61.54752 7.82336s-98.432 12.30848-160.0256 12.30848c-61.50656 0-160.0256-12.30848-160.0256-12.30848l-61.09696-7.64416s-148.16768 48.30208-148.16768 104.46336v27.22816c0 52.38784 68.29056 105.25696 148.3264 145.80224 3.87584 1.96096 51.97312-270.40256 51.97312-270.40256l21.2736 0.55296s-41.10336 281.20576-36.93056 283.12064c22.15424 10.13248 36.73088 19.63008 58.52672 27.48928 8.08448 2.944 46.73536 23.93088 25.1136 80.4608-50.0736 51.04128-84.18816 100.49536-84.18816 212.0192h371.54304c0-110.36672-34.98496-160.27648-84.72576-211.38944h0.28672c-21.1456-64.11776 12.672-79.32928 18.05824-81.07008 21.56544-7.12704 43.03872-18.27328 64.67584-27.49952 5.36064-2.28352-36.93056-283.12064-36.93056-283.12064l22.4768 0.60416s45.8496 271.47264 50.5344 269.17888c81.2544-39.78752 148.56192-92.288 148.56192-145.74592zM723.26144 641.32096c0 128.15872-174.52032 192.2304-174.52032 192.2304-24.71424 11.13088-49.24928 8.59648-74.53184 0 0 0-174.52544-56.25856-174.52544-192.2304 0-20.3264-36.89472-15.96416-49.1008-80.26112h521.79968c-22.21568 64.7424-49.12128 59.9296-49.12128 80.26112z"  horiz-adv-x="1024" />

    
    <glyph glyph-name="xinwen3" unicode="&#58899;" d="M93.676-125.871H21.293c-12.773 0-21.289 8.515-21.289 21.289V666.079c0 12.773 8.516 21.289 21.29 21.289h70.253c12.773 0 21.289-8.516 21.289-21.289v-770.661c2.129-12.774-8.516-21.29-19.16-21.29zM979.298 896H195.863c-23.418 0-42.578-19.16-42.578-42.578v-938.844c0-23.418 19.16-42.578 42.578-42.578h785.563c23.418 0 42.578 19.16 42.578 42.578V853.422C1021.876 876.84 1004.844 896 979.298 896z m-504.55-172.44H625.9v-38.32H513.07v-57.481H625.9v-38.32H513.07v-57.48H625.9v-38.32H474.75v229.92z m-227.791 0h57.48l76.64-151.153V723.56h57.48v-227.792h-57.48l-76.64 155.41 2.129-155.41h-57.48V723.56zM510.94 42.311H246.957v57.48H510.94v-57.48z m0 151.152H246.957v57.48H510.94v-57.48z m0 151.151H246.957v57.48H510.94v-57.48z m378.944-302.303H587.58V402.096h302.304v-359.784z m0 453.455h-57.48l-40.45 172.44-36.19-172.44h-57.481L664.221 723.56h38.32l38.32-170.312 38.32 170.312h38.32l38.32-170.312 38.32 170.312h38.32l-42.577-227.792z"  horiz-adv-x="1026" />

    
    <glyph glyph-name="ccgl-rukucaozuo-1" unicode="&#58901;" d="M179.156-50.73299999999995c-52.554 0-96.349 40.22-101.89 91.344h-0.535v676.767c0 56.308 46.118 102.427 102.427 102.427h460.831c56.308 0 102.427-46.118 102.427-102.427v-189.123l-51.124 40.039v149.083c0 28.242-23.058 51.302-51.302 51.302h-460.831c-28.242 0-51.124-23.058-51.124-51.124v-212.897h0.18v-457.612c2.324-25.92 24.487-46.476 50.947-46.476h20.556v-51.124l-20.556-0.18zM812.308 73.50300000000004v-125.307h134.961v125.307h-134.961zM929.035 35.42700000000002h-98.317v12.333h98.317v-12.333zM656.972 215.433v-125.307h134.961v125.307h-134.961zM774.054 177.35900000000004h-97.601v12.333h97.601v-12.333zM657.866 73.50300000000004v-125.307h134.782v125.307h-134.782zM774.054 35.42700000000002h-97.601v12.333h97.601v-12.333zM899.364 267.452l48.082-33.786v71.681l-346.784 244.001c-6.256 4.827-14.299 7.686-22.702 7.686-8.579 0-16.445-2.86-22.702-7.686l-358.941-252.582v-71.681l59.703 42.007v-317.828h56.665v357.687l265.271 186.8 264.737-186.439v-151.763h56.665v111.902zM220.63 634.7909999999999h377.712c13.585 0 24.668 11.083 24.668 24.668s-11.083 24.668-24.668 24.668h-377.712c-13.585 0-24.668-11.083-24.668-24.668 0.18-13.585 11.263-24.668 24.668-24.668zM220.63 536.479h164.454c13.585 0 24.668 11.083 24.668 24.487 0 13.585-11.083 24.668-24.668 24.668h-164.454c-13.585 0-24.668-11.083-24.668-24.668 0.18-13.405 11.263-24.487 24.668-24.487zM469.099 175.21299999999997l-76.865-77.043c-0.714-0.535-1.431-1.074-1.965-1.788-3.574-3.574-5.363-8.4-5.541-13.051v-0.535c0-4.645 1.788-9.473 5.541-13.051 0.714-0.714 1.251-1.251 1.965-1.788l77.043-77.043c7.329-7.329 19.127-7.329 26.454 0s7.329 19.127 0 26.454l-46.299 46.299h123.342c10.369 0 18.77 8.4 18.77 18.77s-8.4 18.77-18.77 18.77h-124.591l47.55 47.55c7.329 7.329 7.329 19.127 0 26.454s-19.305 7.329-26.636 0z"  horiz-adv-x="1024" />

    
    <glyph glyph-name="menu" unicode="&#58902;" d="M832.2 631.4H192.3c-35.2 0-64 28.8-64 64s28.8 64 64 64h639.8c35.2 0 64-28.8 64-64 0.1-35.2-28.7-64-63.9-64zM832.2 318.1H196.1c-35.2 0-64 28.8-64 64s28.8 64 64 64h636.1c35.2 0 64-28.8 64-64s-28.8-64-64-64zM832.2-0.8999999999999773H192.3c-35.2 0-64 28.8-64 64s28.8 64 64 64h639.8c35.2 0 64-28.8 64-64 0.1-35.2-28.7-64-63.9-64z"  horiz-adv-x="1024" />

    
    <glyph glyph-name="bangong" unicode="&#59144;" d="M482.684 159.702H225.662a21.134 21.134 0 0 1-21.816-21.135V-23.69a21.134 21.134 0 0 1 21.816-21.135h257.022a21.134 21.134 0 0 1 21.817 21.135V138.567a21.134 21.134 0 0 1-21.817 21.135z m0 259.068H225.662a21.134 21.134 0 0 1-21.135-21.135v-162.258a21.134 21.134 0 0 1 21.817-21.135h256.34a21.134 21.134 0 0 1 21.817 21.135V397.635a21.134 21.134 0 0 1-21.817 21.135zM1066.269 587.164H778.567l-43.632 26.588v27.952h126.807a40.224 40.224 0 0 1 39.542 40.906V855.095A40.224 40.224 0 0 1 861.742 896H545.406a40.224 40.224 0 0 1-39.542-40.905V682.61a40.224 40.224 0 0 1 39.542-40.906h128.17v-28.633l-43.632-26.589H293.838v4.09l-5.455 18.408a90.674 90.674 0 0 0 0 48.405l9.545 26.588a126.807 126.807 0 0 1 6.136 49.087v25.907a28.634 28.634 0 0 1-31.36 23.861h-68.177a28.634 28.634 0 0 1-27.27-25.225v-25.907a126.807 126.807 0 0 1 6.136-49.086l9.544-26.589a90.674 90.674 0 0 0 0-48.404l-5.454-18.408v-4.09H24.543A25.225 25.225 0 0 1 0 561.257v-68.176a25.225 25.225 0 0 1 24.543-25.225h24.544a25.225 25.225 0 0 0 24.543-25.225v-545.406A25.225 25.225 0 0 1 98.173-128h24.543a25.225 25.225 0 0 1 24.544 25.225V442.631a25.225 25.225 0 0 0 24.543 25.225h746.525a25.225 25.225 0 0 0 24.543-25.225v-545.406A25.225 25.225 0 0 1 967.414-128h24.543a25.225 25.225 0 0 1 24.544 25.225V442.631a25.225 25.225 0 0 0 24.543 25.225h24.543a25.225 25.225 0 0 1 25.225 27.27v68.176a25.225 25.225 0 0 1-24.543 23.862zM899.92 397.635a21.134 21.134 0 0 1-21.816 21.135H621.763a21.134 21.134 0 0 1-21.816-21.135V-23.69a21.134 21.134 0 0 1 21.816-21.135h256.34a21.134 21.134 0 0 1 21.817 21.135z"  horiz-adv-x="1092" />

    
    <glyph glyph-name="shebei" unicode="&#58904;" d="M89.86132812 4.3125c0-38.84765625 31.46484375-70.3125 70.31250001-70.3125h703.125c38.84765625 0 70.3125 31.46484375 70.3125 70.3125V197.671875c0 38.84765625-31.46484375 70.3125-70.3125 70.3125h-304.1015625V452.5546875c0 24.2578125-19.6875 43.9453125-43.9453125 43.9453125s-43.9453125-19.6875-43.9453125-43.9453125v-184.5703125h-311.1328125c-38.84765625 0-70.3125-31.46484375-70.3125-70.3125v-193.359375z m87.89062501 96.6796875c0 24.2578125 19.6875 43.9453125 43.9453125 43.9453125s43.9453125-19.6875 43.9453125-43.9453125-19.6875-43.9453125-43.9453125-43.9453125-43.9453125 19.6875-43.9453125 43.9453125z m158.20312499 0c0 24.2578125 19.6875 43.9453125 43.94531251 43.9453125s43.9453125-19.6875 43.9453125-43.9453125-19.6875-43.9453125-43.9453125-43.9453125-43.9453125 19.6875-43.9453125 43.9453125z m179.29687501 536.1328125c-101.953125 0-184.5703125-82.6171875-184.57031251-184.5703125 0-24.2578125 19.6875-43.9453125 43.94531251-43.9453125s43.9453125 19.6875 43.9453125 43.9453125c0 53.4375 43.2421875 96.6796875 96.67968749 96.6796875s96.6796875-43.2421875 96.6796875-96.6796875c0-24.2578125 19.6875-43.9453125 43.9453125-43.9453125s43.9453125 19.6875 43.9453125 43.9453125c0 101.953125-82.6171875 184.5703125-184.57031249 184.5703125z m-1e-8 140.625c-179.6484375 0-325.1953125-145.546875-325.19531249-325.1953125 0-24.2578125 19.6875-43.9453125 43.94531249-43.9453125s43.9453125 19.6875 43.9453125 43.9453125c0 131.1328125 106.171875 237.3046875 237.30468751 237.3046875s237.3046875-106.171875 237.30468749-237.3046875c0-24.2578125 19.6875-43.9453125 43.94531251-43.9453125s43.9453125 19.6875 43.9453125 43.9453125c0 179.6484375-145.546875 325.1953125-325.19531251 325.1953125z"  horiz-adv-x="1024" />

    
    <glyph glyph-name="ludeng" unicode="&#58905;" d="M479.06 600.63h59.85v-433.89h-59.85V600.63zM580.13-20.909999999999968h-142.2L449.9 141.17999999999995c0 14.13 11.43 25.56 25.56 25.56H542.6c14.13 0 25.56-11.43 25.56-25.56l11.97-162.09z m34.56-45.09H403.37v45.09h211.32v-45.09z m66.78 644.67v-43.29c0-42.3-34.29-76.59-76.59-76.59H419.12c-42.3 0-76.59 34.29-76.59 76.59v43.29h-43.38v-58.32c0-56.43 45.72-102.15 102.15-102.15h215.55c56.43 0 102.15 45.72 102.15 102.15v58.32h-37.53zM509.03 736.89z m-97.2 0c0-53.64 43.47-97.11 97.11-97.11s97.11 43.47 97.11 97.11C606.14 790.53 562.67 834 509.03 834s-97.2-43.47-97.2-97.11M551.42 596.13h-84.87-0.09v72.09H551.6v-72s-0.09 0-0.18-0.09c0.09 0 0.09 0 0 0zM321.74 651.39z m-85.5 0c0-47.25 38.25-85.5 85.5-85.5s85.5 38.25 85.5 85.5-38.25 85.5-85.5 85.5-85.5-38.34-85.5-85.5M359.09 527.55h-74.7-0.09V591h74.88v-63.36l-0.09-0.09zM702.26 651.39z m-85.5 0c0-47.25 38.25-85.5 85.5-85.5s85.5 38.25 85.5 85.5c0 30.51-16.29 58.77-42.75 74.07s-59.04 15.3-85.5 0c-26.46-15.3-42.75-43.56-42.75-74.07M739.61 527.55h-74.7-0.09V591H739.7v-63.36l-0.09-0.09c0.09 0 0 0 0 0z"  horiz-adv-x="1024" />

    
    <glyph glyph-name="dengchu" unicode="&#58906;" d="M512 336.611556a48.64 48.64 0 0 0-48.810667 48.298666V810.723556c0 26.737778 21.959111 48.298667 48.753778 48.298666s48.810667-21.617778 48.810667-48.298666v-425.813334c0-26.737778-22.016-48.298667-48.810667-48.298666z m127.260444 308.053333a48.128 48.128 0 0 0 72.590223 41.642667c133.518222-71.736889 218.282667-209.237333 218.282666-361.016889 0-237.056-202.922667-424.96-445.44-410.168889C278.528-71.566222 110.478222 92.444444 95.288889 295.253333 82.090667 452.835556 161.962667 600.120889 296.732444 678.684444a48.241778 48.241778 0 0 0 73.500445-41.130666c0-16.725333-9.045333-31.345778-24.177778-41.244445a313.457778 313.457778 0 0 1-154.737778-269.596444c0-186.823111 165.660444-333.596444 355.953778-312.32 145.749333 16.042667 263.566222 129.991111 281.144889 272.327111 17.066667 129.934222-49.720889 253.724444-163.612444 315.960889a45.738667 45.738667 0 0 0-25.6 41.984z"  horiz-adv-x="1024" />

    
    <glyph glyph-name="tianjiayonghu" unicode="&#58940;" d="M729.6 166.4V281.6a38.4 38.4 0 0 0 76.8 0v-115.2h115.2a38.4 38.4 0 0 0 0-76.8h-115.2v-115.2a38.4 38.4 0 0 0-76.8 0v115.2H614.4a38.4 38.4 0 0 0 0 76.8h115.2z m-6.528 192.576l-55.872-55.104a370.176 370.176 0 0 1-148.992 31.04c-202.752 0-379.52-162.112-379.52-362.112a37.12 37.12 0 0 0-37.376-36.8 37.12 37.12 0 0 0-37.312 36.8c0 191.744 133.504 354.56 311.168 412.8a244.224 244.224 0 0 0-105.856 200.96C269.312 722.048 380.8 832 518.272 832c137.408 0 248.832-109.888 248.832-245.504 0-83.2-41.984-156.8-106.24-201.152 21.504-7.232 42.304-16.064 62.208-26.368z m-204.8 55.68c96.192 0 174.144 76.992 174.144 171.84 0 94.912-77.952 171.84-174.208 171.84-96.192 0-174.208-76.928-174.208-171.84 0-94.848 78.016-171.84 174.208-171.84z"  horiz-adv-x="1024" />

    
    <glyph glyph-name="jingbao1" unicode="&#59079;" d="M899.73188985-33.55741982999996h-89.47658996V384c0 164.67953343-133.57576645 298.25529989-298.25529989 298.25529989S213.74470011 548.67953343 213.74470011 384v-417.55741983h-89.47658996c-16.51056124 0-29.82552999-13.31496875-29.82552998-29.82552999s13.31496875-29.82552999 29.82552998-29.82552999h775.4637797c16.51056124 0 29.82552999 13.31496875 29.82552998 29.82552999s-13.31496875 29.82552999-29.82552998 29.82552999z m-447.38294983 0V354.17447001000005c0 16.51056124-13.31496875 29.82552999-29.82552998 29.82552999s-29.82552999-13.31496875-29.82552999-29.82552999v-387.73188984H273.39576009V384c0 131.55189119 107.0523487 238.60423991 238.60423991 238.60423991s238.60423991-107.0523487 238.60423991-238.60423991v-417.55741983H452.34894002zM512 741.90635987c16.51056124 0 29.82552999 13.31496875 29.82552999 29.82552998V831.38294982c0 16.51056124-13.31496875 29.82552999-29.82552999 29.82552999s-29.82552999-13.31496875-29.82552999-29.82552999v-59.65105997c0-16.51056124 13.31496875-29.82552999 29.82552999-29.82552998zM175.18455063 618.98256841c11.61065274-11.61065274 30.57116824-11.61065274 42.18182099 0 11.61065274 11.61065274 11.61065274 30.57116824 0 42.18182098l-42.18182099 42.18182098c-11.61065274 11.61065274-30.57116824 11.61065274-42.18182099 0-11.61065274-11.61065274-11.61065274-30.57116824 0-42.18182098l42.18182099-42.18182098zM840.08082988 618.98256841l42.18182098 42.18182098c11.61065274 11.61065274 11.61065274 30.57116824 0 42.18182098s-30.57116824 11.61065274-42.18182098 0l-42.18182099-42.18182098c-11.61065274-11.61065274-11.61065274-30.57116824 0-42.18182098 11.61065274-11.61065274 30.57116824-11.61065274 42.18182099 0zM959.38294982 418.08631999h-59.65105997c-16.51056124 0-29.82552999-13.31496875-29.82552998-29.82552999s13.31496875-29.82552999 29.82552998-29.82552999h59.65105997c16.51056124 0 29.82552999 13.31496875 29.82552999 29.82552999s-13.31496875 29.82552999-29.82552999 29.82552999zM154.09364013 388.26079c0 16.51056124-13.31496875 29.82552999-29.82552998 29.82552999H64.61705018c-16.51056124 0-29.82552999-13.31496875-29.82552999-29.82552999s13.31496875-29.82552999 29.82552999-29.82552999h59.65105997c16.51056124 0 29.82552999 13.31496875 29.82552998 29.82552999z"  horiz-adv-x="1024" />

    
    <glyph glyph-name="kongzhixiang" unicode="&#59271;" d="M1448.200336-104.433315H0.015482V883.958628h1448.184854v-988.391943zM61.596779-42.852018h1325.02226V822.377331H61.596779v-865.229349zM553.646805 234.269839h-106.027721l-118.963595 171.723727c-3.043027 4.395101-6.510942 11.243201-10.398585 20.544301h-1.267785v-192.268028h-83.706458V627.176369h83.706458v-185.674517h1.267785c3.717344 8.117605 7.439848 15.132564 11.160632 21.051759l112.622952 164.621038h99.939948l-140.522812-187.449759 152.189181-205.455051zM883.66985 581.773515L682.776759 302.756003h200.638502v-68.486164h-314.021781v46.672358l204.443575 277.749728H584.612054v68.486164h299.057796v-45.404574zM1257.552732 234.269839H1158.121963l-70.515995 130.377096c-2.537289 4.732259-5.160588 13.274753-7.863016 25.618879h-1.014916c-1.353794-6.087774-4.398541-14.881416-9.1308-26.379206l-70.770584-129.616769h-100.192817l126.064565 196.580559-115.156802 196.327691h101.968059l58.595036-120.23138c4.732259-9.810278 8.790202-20.633751 12.173828-32.468699h1.014915c3.550485 10.653174 7.863016 21.896375 12.937594 33.736484l64.682811 118.961875h93.597585l-118.710727-194.805317 121.752033-198.101213z"  horiz-adv-x="1448" />

    
    <glyph glyph-name="guzhang" unicode="&#58962;" d="M1136.325564 15.003565L656.426214 847.473265C639.678049 876.889914 608.543639 895.14112 574.617868 895.14112s-65.06018-18.251206-81.808345-47.667855L12.910173 15.003565c-17.177605-29.201929-17.177605-65.2749-0.21472-94.69155 16.962885-29.201929 48.312015-47.238415 82.023065-47.023695h959.7987c33.925771-0.21472 65.2749 17.607046 82.023066 47.023695 16.962885 29.416649 16.748165 65.48962-0.21472 94.69155z m-75.581464-50.459216c-1.28832-2.361921-3.864961-3.650241-6.441602-3.435521H94.718518c-2.791361-0.21472-5.368002 1.0736-6.871042 3.435521-1.28832 2.361921-1.28832 5.368002 0.42944 7.515202L568.176266 802.382051c1.28832 2.147201 3.650241 3.650241 6.012162 3.650241 2.576641 0 4.938562-1.28832 6.012162-3.650241l480.32879-830.75194c1.50304-2.361921 1.50304-4.938562 0.21472-7.085762z m0 0M531.029695 569.625498v-341.834347c0-24.048648 19.539526-43.588174 43.588173-43.588173 24.048648 0 43.588174 19.539526 43.588174 43.588173V569.625498c0 24.048648-19.539526 43.588174-43.588174 43.588174-24.048648 0-43.588174-19.539526-43.588173-43.588174z m0 0M521.796732 77.057664c0-18.895366 10.091843-36.287691 26.410568-45.735374 16.318725-9.447683 36.502411-9.447683 52.821137 0 16.318725 9.447683 26.410568 26.840008 26.410568 45.735374s-10.091843 36.287691-26.410568 45.735374c-16.318725 9.447683-36.502411 9.447683-52.821137 0a52.842609 52.842609 0 0 1-26.410568-45.735374z m0 0"  horiz-adv-x="1150" />

    
    <glyph glyph-name="guzhang1" unicode="&#59217;" d="M911.556 20.307H112.441c-28.965 29.217-28.965 76.6 0 105.821l347.116 599.649c28.965 29.222 75.92 29.222 104.884 0l347.116-599.649c28.967-29.221 28.967-76.604-0.001-105.821zM563.211 510.512c0 23.173-18.621 41.962-41.59 41.962-22.973 0-41.59-18.79-41.59-41.962V314.68c0-23.177 18.617-41.966 41.59-41.966 22.97 0 41.59 18.79 41.59 41.966V510.512z m-41.345-293.998c-22.97 0-41.587-18.789-41.587-41.966s18.617-41.962 41.587-41.962c22.973 0 41.594 18.786 41.594 41.962 0 23.178-18.621 41.966-41.594 41.966z"  horiz-adv-x="1024" />

    
    <glyph glyph-name="ludeng1" unicode="&#59045;" d="M471.9 612.1h72.8v-457h-72.8zM594.9-73.1h-173L436.5 124c0 17.2 13.9 31.1 31.1 31.1h81.7c17.2 0 31.1-13.9 31.1-31.1l14.5-197.1z m42-54.9h-257v54.9H637v-54.9z m81.3 713.4v-52.7c0-51.5-41.7-93.2-93.2-93.2H399c-51.5 0-93.2 41.7-93.2 93.2v52.7H253v-70.9c0-68.6 55.6-124.3 124.3-124.3h262.2c68.6 0 124.3 55.6 124.3 124.3v70.9h-45.6zM390.1 777.9c0-65.3 52.9-118.1 118.1-118.1s118.1 52.9 118.1 118.1C626.5 843.1 573.6 896 508.4 896S390.1 843.1 390.1 777.9M560 606.6H456.6v87.7h103.6v-87.6s-0.1 0-0.2-0.1c0.1 0 0.1 0 0 0z m-383.5 67.3c0-57.5 46.5-104 104-104s104 46.5 104 104-46.5 104-104 104-104-46.7-104-104M326 523.2h-91v77.2h91.1v-77.1l-0.1-0.1z m313.4 150.7c0-57.5 46.5-104 104-104s104 46.5 104 104c0 37.1-19.8 71.5-52 90.1-32.2 18.6-71.8 18.6-104 0-32.1-18.7-52-53-52-90.1M788.9 523.2h-91v77.2H789v-77.1l-0.1-0.1c0.1 0 0 0 0 0z m0 0"  horiz-adv-x="1024" />

    
    <glyph glyph-name="tubiaozhizuomoban-" unicode="&#58908;" d="M808.490667 789.333333h-597.333334a106.794667 106.794667 0 0 1-106.666666-106.666666v-597.333334c0-58.837333 47.872-106.666667 106.666666-106.666666h597.333334c58.794667 0 106.666667 47.829333 106.666666 106.666666v597.333334c0 58.837333-47.829333 106.666667-106.666666 106.666666z m-497.322667-655.402666c-58.197333 0-102.954667 45.269333-102.954667 104.106666 0 58.88 44.757333 104.149333 102.954667 104.149334 53.717333 0 102.954667-40.746667 102.954667-104.149334 0-58.837333-44.757333-104.106667-102.954667-104.106666z m122.922667 448.426666l-108.885334-139.136a31.957333 31.957333 0 0 0-45.397333-5.12l-91.776 74.666667c-13.696 11.178667-15.786667 31.317333-4.650667 45.056s31.317333 15.786667 45.013334 4.608l66.517333-54.101333 88.789333 113.408a31.957333 31.957333 0 1 0 50.389334-39.381334z m364.586666-382.762666h-285.354666a42.666667 42.666667 0 1 0 0 85.333333h285.354666a42.666667 42.666667 0 1 0 0-85.333333z m0 299.562666h-285.354666a42.666667 42.666667 0 1 0 0 85.333334h285.354666a42.666667 42.666667 0 1 0 0-85.333334z"  horiz-adv-x="1024" />

    
    <glyph glyph-name="chuku1" unicode="&#58911;" d="M832.341333 706.730667c0 12.629333-5.12 23.893333-13.312 32.085333l-106.154666 106.154667c-8.533333 8.533333-20.138667 13.312-32.085334 13.312-12.117333 0-23.722667-4.778667-32.085333-13.312l-106.154667-106.154667c-16.725333-17.92-16.213333-45.909333 1.194667-63.317333s45.397333-17.749333 63.317333-1.024l28.501334 28.501333v-318.805333c0-25.088 20.309333-45.568 45.568-45.568 25.088 0 45.568 20.309333 45.568 45.568V703.146667l28.501333-28.501334c12.970667-12.970667 32.597333-16.896 49.664-9.898666 16.384 6.997333 27.477333 23.552 27.477333 41.984zM1164.117333 295.765333l-121.002666 317.610667c-6.485333 18.090667-23.552 30.037333-42.837334 30.037333H772.778667v-90.965333h196.266666l86.698667-227.498667h-146.261333c-12.117333 0-23.722667-4.778667-32.256-13.312-8.533333-8.533333-13.312-20.138667-13.312-32.256V233.813333H499.712v45.568c0 12.117333-4.778667 23.722667-13.312 32.256-8.533333 8.533333-20.138667 13.312-32.256 13.312h-146.432l86.698667 227.498667h196.266666V643.413333H363.178667c-19.114667 0-36.352-11.946667-42.837334-30.037333l-121.002666-317.610667c-2.048-5.290667-3.072-10.752-3.072-16.384v-288.256c0-25.088 20.309333-45.568 45.568-45.568h879.957333c25.088 0 45.568 20.309333 45.568 45.568V279.381333c-0.170667 5.632-1.194667 11.264-3.242667 16.384z"  horiz-adv-x="1365" />

    
    <glyph glyph-name="jigou1" unicode="&#58921;" d="M895.6 55.3h-38.7V534.9c0 12.9-6.9 24.8-18 31.3L642.4 680.7c-11.2 6.5-25.1 6.6-36.3 0.1-11.2-6.5-18.2-18.5-18.2-31.4v-594.1h-41.2V743.6c0 12.2-6.1 23.6-16.3 30.3-10.2 6.7-23 7.8-34.2 3l-307-131.7c-13.3-5.7-21.9-18.8-21.9-33.3v-556.5h-38.6c-7.1 0-12.8-5.7-12.8-12.8v-41.8c0-7.1 5.8-12.8 12.8-12.8h766.9c7.1 0 12.8 5.8 12.8 12.8v41.8c0 7-5.7 12.7-12.8 12.7M688 551c0 7.1 5.7 12.8 12.8 12.8h40.8c7.1 0 12.8-5.7 12.8-12.8v-40.8c0-7.1-5.7-12.8-12.8-12.8h-40.8c-7.1 0-12.8 5.7-12.8 12.8V551m0-102.7c0 7.1 5.7 12.8 12.8 12.8h40.8c7.1 0 12.8-5.7 12.8-12.8v-40.8c0-7.1-5.7-12.8-12.8-12.8h-40.8c-7.1 0-12.8 5.7-12.8 12.8v40.8m0-102.7c0 7.1 5.7 12.8 12.8 12.8h40.8c7.1 0 12.8-5.8 12.8-12.8v-40.8c0-7.1-5.7-12.8-12.8-12.8h-40.8c-7.1 0-12.8 5.8-12.8 12.8v40.8m0-102.7c0 7.1 5.7 12.8 12.8 12.8h40.8c7.1 0 12.8-5.8 12.8-12.8v-40.8c0-7.1-5.7-12.8-12.8-12.8h-40.8c-7.1 0-12.8 5.8-12.8 12.8v40.8m0-102.7c0 7.1 5.7 12.8 12.8 12.8h40.8c7.1 0 12.8-5.7 12.8-12.8v-40.8c0-7.1-5.7-12.8-12.8-12.8h-40.8c-7.1 0-12.8 5.7-12.8 12.8v40.8M385 653.7c0 7.1 5.7 12.8 12.8 12.8h40.8c7.1 0 12.8-5.8 12.8-12.8v-40.8c0-7.1-5.7-12.8-12.8-12.8h-40.8c-7.1 0-12.8 5.7-12.8 12.8v40.8m0-102.7c0 7.1 5.7 12.8 12.8 12.8h40.8c7.1 0 12.8-5.7 12.8-12.8v-40.8c0-7.1-5.7-12.8-12.8-12.8h-40.8c-7.1 0-12.8 5.7-12.8 12.8V551m0-102.7c0 7.1 5.7 12.8 12.8 12.8h40.8c7.1 0 12.8-5.7 12.8-12.8v-40.8c0-7.1-5.7-12.8-12.8-12.8h-40.8c-7.1 0-12.8 5.7-12.8 12.8v40.8m0-102.7c0 7.1 5.7 12.8 12.8 12.8h40.8c7.1 0 12.8-5.8 12.8-12.8v-40.8c0-7.1-5.7-12.8-12.8-12.8h-40.8c-7.1 0-12.8 5.8-12.8 12.8v40.8m0-102.7c0 7.1 5.7 12.8 12.8 12.8h40.8c7.1 0 12.8-5.8 12.8-12.8v-40.8c0-7.1-5.7-12.8-12.8-12.8h-40.8c-7.1 0-12.8 5.8-12.8 12.8v40.8m0-102.7c0 7.1 5.7 12.8 12.8 12.8h40.8c7.1 0 12.8-5.7 12.8-12.8v-40.8c0-7.1-5.7-12.8-12.8-12.8h-40.8c-7.1 0-12.8 5.7-12.8 12.8v40.8M261.4 551c0 7.1 5.8 12.8 12.8 12.8H315c7.1 0 12.8-5.7 12.8-12.8v-40.8c0-7.1-5.8-12.8-12.8-12.8h-40.8c-7.1 0-12.8 5.7-12.8 12.8V551m0-102.7c0 7.1 5.8 12.8 12.8 12.8H315c7.1 0 12.8-5.7 12.8-12.8v-40.8c0-7.1-5.8-12.8-12.8-12.8h-40.8c-7.1 0-12.8 5.7-12.8 12.8v40.8m0-102.7c0 7.1 5.8 12.8 12.8 12.8H315c7.1 0 12.8-5.8 12.8-12.8v-40.8c0-7.1-5.8-12.8-12.8-12.8h-40.8c-7.1 0-12.8 5.8-12.8 12.8v40.8m0-102.7c0 7.1 5.8 12.8 12.8 12.8H315c7.1 0 12.8-5.8 12.8-12.8v-40.8c0-7.1-5.8-12.8-12.8-12.8h-40.8c-7.1 0-12.8 5.8-12.8 12.8v40.8m0-102.7c0 7.1 5.8 12.8 12.8 12.8H315c7.1 0 12.8-5.7 12.8-12.8v-40.8c0-7.1-5.8-12.8-12.8-12.8h-40.8c-7.1 0-12.8 5.7-12.8 12.8v40.8m0 0z m0 0"  horiz-adv-x="1024" />

    
    <glyph glyph-name="kongzhixiang1" unicode="&#59327;" d="M1346.816 234.27072h-106.02496l-118.9632 171.7248c-3.04128 4.39296-6.50752 11.24352-10.39872 20.54656h-1.26976v-192.26624h-83.712v392.9088h83.70688v-185.6768h1.26976c3.71712 8.1152 7.43936 15.13472 11.1616 21.04832l112.62464 164.62336h99.9424L1194.624 439.72608l152.192-205.45536z m330.01472 347.49952l-200.88832-279.01952h200.63744v-68.48512H1362.56v46.6688l204.4416 277.75488h-189.22496V627.17952h299.05408v-45.40928z m373.88288-347.49952h-99.4304l-70.51264 130.3808c-2.5344 4.73088-5.16096 13.27104-7.86432 25.61536h-1.00864c-1.3568-6.08768-4.39808-14.87872-9.12896-26.37312l-70.76864-129.61792h-100.1984l126.06976 196.5824-115.15904 196.3264h101.96992l58.59328-120.22784c4.736-9.80992 8.79104-20.6336 12.17536-32.47104h1.00864a438.56384 438.56384 0 0 0 12.93824 33.73568l64.68608 118.9632h93.5936l-118.71232-194.80576 121.74848-198.10816zM3077.16096 79.33952h-3077.16096V865.30048h3077.16096v-785.96096z m-2990.08 87.08096h2902.99904V778.21952h-2902.99904v-611.79904zM372.68992 80.31744H608.6912v-58.24h-236.00128zM1420.57984 80.31744h236.00128v-58.24h-236.00128zM2487.24992 80.31744H2723.2512v-58.24h-236.00128z"  horiz-adv-x="3077" />

    
    <glyph glyph-name="ludeng2" unicode="&#58979;" d="M713.134485 606.125952a20.757045 20.757045 0 0 1-20.970156-20.970156v-39.382976c0-11.721124 9.20641-20.970156 20.970156-20.970156a21.311134 21.311134 0 0 1 20.970156 20.970156v39.382976a20.757045 20.757045 0 0 1-20.970156 20.970156zM801.149469 612.817648a21.907846 21.907846 0 0 1-18.455442 10.911301 22.504558 22.504558 0 0 1-10.058855-2.514714 21.353757 21.353757 0 0 1-10.058856-12.573569 21.396379 21.396379 0 0 1 1.662269-15.940728l19.265265-33.501103a21.907846 21.907846 0 0 1 29.366743-8.396587 20.629178 20.629178 0 0 1 7.544142 28.471675l-19.265266 33.543725zM874.885994 640.479501l-30.176566 25.147138a20.6718 20.6718 0 0 1-29.366743-2.514714 20.373444 20.373444 0 0 1 2.514714-29.324121l30.176566-25.147138a20.6718 20.6718 0 0 1 29.366743 2.514714 16.878418 16.878418 0 0 1 5.029427 15.088283 21.694735 21.694735 0 0 1-7.544141 14.235838zM654.486243 621.214235a20.032466 20.032466 0 0 1-10.058855 2.514714 20.714422 20.714422 0 0 1-18.41282-10.911301l-19.307887-33.501103a20.629178 20.629178 0 0 1 7.544141-28.471675 20.032466 20.032466 0 0 1 10.058855-2.514714c7.544142 0 14.235838 4.176982 19.265266 10.911301l19.265265 33.501103a21.183267 21.183267 0 0 1-8.353965 28.471675zM615.955713 648.023642a24.976649 24.976649 0 0 1-5.029428 15.088283 20.629178 20.629178 0 0 1-29.366743 2.514714l-30.176566-25.147138a21.012778 21.012778 0 0 1 13.426015-36.868263 19.052154 19.052154 0 0 1 13.426014 5.029428l30.176566 25.147138a21.865224 21.865224 0 0 1 7.544142 14.235838zM450.964912 720.524121h128.932362c20.075088-39.596087 60.608866-80.683954 143.637044-80.683955 72.244745 0 104.509802 49.654943 118.703018 92.405079a23.186514 23.186514 0 0 1 3.836004 12.189968 23.86847 23.86847 0 0 1-23.911092 23.911093H179.24795a23.86847 23.86847 0 0 1-23.911093-23.911093v-703.224807a41.641956 41.641956 0 0 1 83.283913 0V654.544849l212.344142 65.979272z"  horiz-adv-x="1024" />

    
    <glyph glyph-name="qingjia2" unicode="&#58928;" d="M354.884627 159.340308c0 35.132308 5.476923 69.032615 15.846154 100.892307 10.369231 32.396308 25.628308 61.668923 44.267076 88.641231 19.289846 27.075692 41.475692 50.717538 67.746462 71.616 25.521231 21.057231 54.637538 37.335385 85.742769 50.016 2.145231 4.781538 3.437538 9.508923 6.337231 17.031385l4.728615 12.946461c0.697846 4.032 2.151385 8.059077 3.43877 11.389539 6.342154 2.152615 11.820308 5.481846 17.136 10.260923 4.782769 4.028308 8.920615 10.206769 13.112615 17.569231 3.437538 7.464615 6.337231 18.316308 7.628308 31.104 0.696615 9.510154 0.696615 17.568-0.701539 24.33723-2.040615 6.768-3.437538 12.084923-6.337231 16.276923-2.740923 4.780308-6.336 8.812308-10.370461 11.553231 0 25.084308-2.145231 49.427692-4.723692 73.059693-3.443692 21.063385-8.224 43.249231-15.853539 66.299076-6.925538 23.046154-18.743385 44.696615-34.598154 63.55077-6.926769 8.060308-16.541538 17.031385-28.254769 25.08923-11.820308 8.060308-25.52 15.581538-40.614154 22.348308-15.257846 6.071385-31.699692 11.497846-48.995692 15.581539-17.139692 4.030769-34.599385 6.178462-52.435692 6.178461-13.806769 0-28.260923-1.289846-43.517539-3.437538-15.257846-2.043077-30.408615-6.071385-45.666461-12.086154-15.257846-6.071385-30.407385-14.825846-44.215385-25.090462-13.859692-10.210462-26.963692-23.796923-39.323077-40.611692-12.406154-17.570462-22.187077-37.341538-28.258461-59.531077-6.337231-22.349538-10.364308-43.248-13.105231-62.267077-2.152615-23.044923-3.437538-45.392-3.437539-68.279384-5.483077-6.179692-8.920615-12.086154-11.820307-18.860308-2.740923-6.769231-4.780308-14.233846-5.481847-22.348308-0.696615-8.060308 0.701538-17.568 3.437539-27.825231 2.742154-10.801231 6.931692-18.322462 11.123692-23.798153 4.190769-5.481846 8.216615-10.210462 11.820308-12.951385 4.779077-2.736 8.913231-4.723692 13.105231-6.173539 2.742154-9.510154 6.342154-18.860308 8.919384-27.831384 2.740923-8.057846 6.337231-15.579077 10.370462-23.044923 3.437538-7.469538 8.216615-13.540923 13.105231-17.568 10.369231-8.813538 20.036923-17.031385 28.260923-25.089231 8.217846-8.060308 13.105231-19.716923 14.555077-33.150769 0.702769-10.260923 0.702769-18.316308 0.702769-26.375385 0-7.521231-2.152615-14.828308-4.785231-22.348308-3.437538-7.521231-8.217846-14.828308-15.252923-22.348307-7.038769-7.470769-16.547692-14.833231-29.819077-23.051077-10.368-6.769231-22.777846-12.086154-35.889231-16.976-13.106462-4.784-26.964923-8.811077-40.771692-12.945231-14.562462-4.032-28.262154-8.061538-41.531077-12.092308-13.107692-4.779077-25.52-10.204308-36.587077-17.028923-11.118769-7.521231-20.736-15.580308-28.256-25.090461-7.627077-9.511385-12.408615-21.597538-15.257846-36.475077-6.337231-39.219692-7.628308-71.026462-4.189538-95.953231 3.437538-25.090462 8.217846-39.917538 15.257846-44.695385 4.190769-2.743385 13.110154-6.179692 26.969846-8.814769 13.859692-2.742154 31.105231-6.178462 51.142154-8.806154 20.742154-3.442462 42.817231-6.179692 67.748923-8.809846 24.768-2.742154 49.857231-5.483077 74.622769-7.522461 25.623385-2.043077 49.851077-3.330462 73.331692-4.621539 23.476923-1.291077 44.267077-2.146462 62.265846-2.146461h24.336c-14.561231 25.090462-26.380308 52.162462-34.598153 80.532923-8.221538 28.790154-12.411077 58.610462-12.411077 89.771077z m0 0M966.309857 267.537231c-15.257846 34.599385-35.883077 64.251077-62.265846 90.630154-26.216615 25.628308-56.625231 45.987692-91.812923 60.814769-35.296 14.827077-72.472615 22.348308-112.711384 22.348308-40.08 0-78.112-7.464615-113.249231-22.348308-35.296-14.827077-65.703385-35.131077-91.814154-60.814769-26.216615-25.622154-46.956308-56.193231-62.265846-90.630154-15.256615-34.599385-22.777846-71.021538-22.777846-110.242462 0-39.218462 7.629538-75.801846 22.777846-110.24 15.257846-34.599385 35.885538-64.253538 62.265846-90.630154 26.217846-25.625846 56.626462-45.990154 91.814154-60.816 35.296-14.827077 73.332923-22.348308 113.249231-22.348307 39.917538 0 77.358769 7.464615 112.711384 22.348307 35.296 14.825846 65.703385 35.138462 91.812923 60.816 26.382769 25.628308 46.956308 56.194462 62.265846 90.630154 15.257846 34.596923 22.780308 71.021538 22.780308 110.24 0 39.057231-7.629538 75.643077-22.780308 110.242462zM779.031088 31.638154a43.175385 43.175385 0 0 0-30.572307 12.679384l-86.172308 86.49477c-7.785846 7.625846-12.674462 18.589538-12.674462 30.407384V333.721846c0 23.907692 19.286154 43.089231 43.083077 43.089231 23.799385 0 43.089231-19.289846 43.089231-43.089231v-154.775384l73.655385-73.654154c16.865231-16.872615 16.865231-44.109538 0-60.976-8.382769-8.328615-19.341538-12.678154-30.408616-12.678154z m0 0"  horiz-adv-x="1034" />

    
    <glyph glyph-name="yanzhengma1" unicode="&#59246;" d="M605.323 273.23c-74.495 0-144.385 28.958-197.084 81.658-52.597 52.596-81.658 122.589-81.658 197.084s28.959 144.385 81.658 197.084 122.692 81.556 197.084 81.556c74.496 0 144.386-28.959 197.085-81.658 52.597-52.597 81.658-122.59 81.658-197.084 0-74.495-28.959-144.386-81.658-197.085-52.597-52.597-122.59-81.555-197.085-81.555z m0 502.125c-59.657 0-115.835-23.229-157.995-65.49-42.159-42.16-65.49-98.338-65.49-157.995s23.229-115.836 65.49-157.995 98.338-65.49 157.995-65.49c59.658 0 115.836 23.228 157.995 65.49s65.49 98.337 65.49 157.995-23.228 115.835-65.49 157.995c-42.159 42.261-98.235 65.49-157.995 65.49zM125.506 41.353c-7.06 0-14.122 2.661-19.545 8.084-10.744 10.745-10.744 28.243 0 39.09l289.282 289.282c10.745 10.745 28.243 10.745 39.09 0 10.744-10.744 10.744-28.242 0-39.09L145.05 49.438c-5.423-5.423-12.484-8.084-19.544-8.084z m287.133 108.98c-7.06 0-14.121 2.66-19.545 8.084l-89.025 89.026c-10.745 10.744-10.745 28.242 0 39.09 10.744 10.744 28.242 10.744 39.09 0l89.025-89.026c10.744-10.745 10.744-28.243 0-39.09-5.424-5.321-12.484-8.084-19.545-8.084zM345.82-5.41c-7.06 0-14.122 2.66-19.545 8.084L192.735 136.212c-10.744 10.744-10.744 28.242 0 39.09 10.745 10.744 28.243 10.744 39.09 0l133.538-133.54c10.745-10.744 10.745-28.242 0-39.089-5.32-5.423-12.484-8.084-19.544-8.084z"  horiz-adv-x="1024" />

    
    <glyph glyph-name="ludeng3" unicode="&#58912;" d="M481.7 521.3h61.9v-531.7h-61.9zM481.7 142.39999999999998h61.9v-152.8h-61.9zM481.7 521.3h61.9v-65.1h-61.9zM589.9-26.200000000000045v18.1c0 9.6-7.8 17.4-17.4 17.4H452.8c-9.6 0-17.4-7.8-17.4-17.4v-18.1h154.5zM620.9 724.3c0 59.8-48.5 108.3-108.3 108.3s-108.3-48.5-108.3-108.3h216.6zM620.9 724.3c0 21-6 40.5-16.3 57.1h-184c-10.3-16.6-16.3-36.1-16.3-57.1h216.6zM620.9 737.9H404.4l34.2-216.6h148.1zM603.8 615.1H421.5c-8 0-14.5 6.5-14.5 14.5s6.5 14.5 14.5 14.5h182.3c8 0 14.5-6.5 14.5-14.5s-6.5-14.5-14.5-14.5zM620.9 707H404.4c-17 0-30.8 13.8-30.8 30.8s13.8 30.8 30.8 30.8H621c17 0 30.8-13.8 30.8-30.8 0-16.9-13.8-30.8-30.9-30.8zM586.7 490.4h-148c-17 0-30.8 13.8-30.8 30.8s13.8 30.8 30.8 30.8h148c17 0 30.8-13.8 30.8-30.8s-13.8-30.8-30.8-30.8zM615.9-64.29999999999995c4.9 0 9 4 9 9V-49c0 14-11.3 25.3-25.3 25.3H425.8c-14 0-25.3-11.3-25.3-25.3v-6.3c0-4.9 4-9 9-9h206.4zM284.7 546.6c-6 0-11.5 3.7-13.6 9.7-2.7 7.5 1.3 15.8 8.8 18.4l69.6 24.5c7.5 2.7 15.8-1.3 18.4-8.8 2.7-7.5-1.3-15.8-8.8-18.4l-69.6-24.5c-1.5-0.7-3.2-0.9-4.8-0.9zM354.4 650.3c-0.6 0-1.2 0-1.9 0.1L262.3 662c-7.9 1-13.5 8.3-12.5 16.2 1 7.9 8.3 13.5 16.2 12.5l90.2-11.6c7.9-1 13.5-8.3 12.5-16.2-0.9-7.3-7.2-12.6-14.3-12.6zM740.6 546.6c-1.6 0-3.2 0.3-4.8 0.8l-69.6 24.5c-7.5 2.7-11.5 10.9-8.8 18.4 2.7 7.5 10.9 11.5 18.4 8.8l69.6-24.5c7.5-2.7 11.5-10.9 8.8-18.4-2.1-5.9-7.7-9.6-13.6-9.6zM670.9 650.3c-7.2 0-13.4 5.3-14.3 12.6-1 7.9 4.6 15.2 12.5 16.2l90.2 11.6c7.9 1 15.2-4.6 16.2-12.5S770.9 663 763 662l-90.2-11.6c-0.6-0.1-1.2-0.1-1.9-0.1z"  horiz-adv-x="1024" />

    
    <glyph glyph-name="zuzhi" unicode="&#59405;" d="M366.08 815.104v-248.832h281.6V815.104h-281.6z m532.48-642.048H732.16V-75.776h281.6v248.832H898.56z m-783.36 0H0V-75.776h281.6v248.832h-166.4z m366.08 0h-115.2V-75.776h281.6v248.832H481.28z m391.68 228.352H532.48v128h-51.2v-128h-366.08v-187.904h51.712V333.824H481.28v-120.32h51.2V333.824h314.368v-120.32H898.56v187.904h-25.6z"  horiz-adv-x="1024" />

    
    <glyph glyph-name="ruku1" unicode="&#59038;" d="M366.336 85.333333H0v85.333334h375.978667l-152.96 153.002666L283.306667 384l204.288-204.288a42.453333 42.453333 0 0 0 11.52-21.248 42.666667 42.666667 0 0 0-9.813334-68.181333 42.666667 42.666667 0 0 0-7.509333-10.112L283.306667-118.314667 223.018667-58.026667 366.336 85.333333zM682.666667-42.666667h256V566.613333L512 810.666667 85.333333 566.613333V384H0v-512h682.666667v85.333333zM0 597.333333l512 298.666667 512-298.666667v-725.333333H0V597.333333z"  horiz-adv-x="1024" />

    
    <glyph glyph-name="hetong2" unicode="&#58913;" d="M264 32a32 32 0 1 0 0-64H128A96 96 0 0 0 32 64V768A96 96 0 0 0 128 864h512A96 96 0 0 0 736 768v-143.424a32 32 0 1 0-64 0V768a32 32 0 0 1-32 32H128a32 32 0 0 1-32-32v-704a32 32 0 0 1 32-32h136zM192 640l384 0 0-64-384 0 0 64ZM192 384l256 0 0-64-256 0 0 64ZM704 320a64 64 0 1 1 0 128 64 64 0 0 1 0-128z m0-64a128 128 0 1 0 0 256 128 128 0 0 0 0-256zM480 32v-64h448v64h-448z m0 64h448a64 64 0 0 0 64-64v-64a64 64 0 0 0-64-64h-448a64 64 0 0 0-64 64v64a64 64 0 0 0 64 64zM704 198.656l-101.44-151.04-53.12 35.776L704 313.344l154.56-229.952-53.12-35.712z"  horiz-adv-x="1024" />

    
    <glyph glyph-name="rizhi2" unicode="&#58916;" d="M877.44 896H146.56A146.56 146.56 0 0 1 0 749.44v-730.88A146.56 146.56 0 0 1 146.56-128h730.88A146.56 146.56 0 0 1 1024 18.559999999999945V749.44A146.56 146.56 0 0 1 877.44 896z m72.96-877.44a72.96 72.96 0 0 0-72.96-72.96H146.56a72.96 72.96 0 0 0-72.96 72.96V749.44a72.96 72.96 0 0 0 72.96 73.6h730.88a72.96 72.96 0 0 0 72.96-72.96z m0 0M548.48 676.48H256a36.48 36.48 0 0 1 0-72.96h292.48a36.48 36.48 0 1 1 0 72.96z m-72.96-219.52H256a36.48 36.48 0 0 1 0-72.96h219.52a36.48 36.48 0 0 1 0 72.96z m-72.96-219.52H256a36.48 36.48 0 0 1 0-72.96h146.56a36.48 36.48 0 0 1 0 72.96zM778.24 675.2a35.84 35.84 0 0 1-45.44-24.96l-146.56-512a36.48 36.48 0 0 1 24.96-45.44h10.24a36.48 36.48 0 0 1 35.2 26.24l146.56 512a36.48 36.48 0 0 1-24.96 45.44z m0 0"  horiz-adv-x="1024" />

    
    <glyph glyph-name="ludeng4" unicode="&#58917;" d="M451.764706 769.505882h96.37647v-597.835294H451.764706zM674.635294-91.858824H326.776471l55.717647 251.482353c0 22.588235 22.588235 40.658824 49.694117 40.658824h132.517647c28.611765 0 49.694118-18.070588 49.694118-40.658824l60.235294-251.482353zM508.988235 743.905882l132.517647 67.764706-13.552941 30.117647L501.458824 775.529412l-128 66.258823-15.058824-30.117647 134.023529-67.764706 3.011765-6.023529 6.02353 1.505882 4.517647-1.505882zM870.4 846.305882v12.047059c0 18.070588-16.564706 33.129412-34.635294 33.129412L802.635294 892.988235c-1.505882 0-69.270588-3.011765-75.294118-3.011764-27.105882-1.505882-87.341176-19.576471-87.341176-42.164706l230.4-1.505883zM786.070588 825.223529c6.023529-18.070588 22.588235-30.117647 42.164706-30.117647s36.141176 12.047059 42.164706 30.117647h-84.329412zM640 841.788235l6.023529-12.047059h224.376471v12.047059zM131.011765 846.305882v12.047059C131.011765 876.423529 147.576471 891.482353 165.647059 891.482353l33.129412 1.505882c1.505882 0 69.270588-3.011765 75.294117-3.011764C301.176471 888.470588 361.411765 870.4 361.411765 847.811765l-230.4-1.505883zM213.835294 825.223529c-6.023529-18.070588-22.588235-30.117647-42.164706-30.117647s-36.141176 12.047059-42.164706 30.117647h84.329412zM359.905882 841.788235l-6.023529-12.047059H131.011765v12.047059zM501.458824 769.505882h46.682352v-597.835294h-46.682352zM501.458824-91.858824h173.17647L617.411765 159.623529c0 22.588235-22.588235 40.658824-49.694118 40.658824h-66.258823v-292.141177zM627.952941 841.788235L501.458824 775.529412v-36.141177l4.517647-1.505882 3.011764 6.023529 132.517647 67.764706zM263.529412-57.223529h472.847059V-112.941176H263.529412zM501.458824-57.223529H737.882353V-112.941176H501.458824z"  horiz-adv-x="1024" />

    
    <glyph glyph-name="xuncha" unicode="&#58922;" d="M400.272 788.156c0-59.056 47.874-106.932 106.934-106.932 59.066 0 106.926 47.88 106.926 106.932 0 59.054-47.874 106.93-106.926 106.93-59.06 0.006-106.934-47.872-106.934-106.93z m178.728-154.266h-139.144c-46.964 0-89.176-17.084-119.198-44.402v-275.804h104.596l22.492-323.934h127.906l21.762 323.934h106.126V584.3c-30.252 30.312-74.728 49.59-124.54 49.59z m95.458-447.952v-56.386c118.548-17.532 199.992-53.906 199.992-95.902 0-59.386-162.218-107.372-362.284-107.372-200.06 0-362.352 47.984-362.352 107.372 0 42.138 82.026 78.602 201.374 96.19v56.32C153.03 164.682 10.306 104.568 10.306 33.648c-0.15-88.962 224.674-161.126 501.79-161.126 277.11 0 501.87 72.164 501.87 161.05-0.002 70.776-142.076 130.674-339.508 152.366z"  horiz-adv-x="1024" />

    
    <glyph glyph-name="xuncha1" unicode="&#58927;" d="M400.272 788.156c0-59.056 47.874-106.932 106.934-106.932 59.066 0 106.926 47.88 106.926 106.932 0 59.054-47.874 106.93-106.926 106.93-59.06 0.006-106.934-47.872-106.934-106.93z m178.728-154.266h-139.144c-46.964 0-89.176-17.084-119.198-44.402v-275.804h104.596l22.492-323.934h127.906l21.762 323.934h106.126V584.3c-30.252 30.312-74.728 49.59-124.54 49.59z m95.458-447.952v-56.386c118.548-17.532 199.992-53.906 199.992-95.902 0-59.386-162.218-107.372-362.284-107.372-200.06 0-362.352 47.984-362.352 107.372 0 42.138 82.026 78.602 201.374 96.19v56.32C153.03 164.682 10.306 104.568 10.306 33.648c-0.15-88.962 224.674-161.126 501.79-161.126 277.11 0 501.87 72.164 501.87 161.05-0.002 70.776-142.076 130.674-339.508 152.366z"  horiz-adv-x="1024" />

    
    <glyph glyph-name="jingbao-" unicode="&#58953;" d="M1207.533333-42.666667h-128V256c0 235.166667-191.5 426.666667-426.666666 426.666667s-426.666667-191.5-426.666667-426.666667v-298.666667h-128c-23.666667 0-42.666667-19-42.666667-42.666666 0-23.666667 19-42.666667 42.666667-42.666667h1109.333333c23.666667 0 42.666667 19 42.666667 42.666667 0 23.666667-19 42.666667-42.666667 42.666666z m-896 0V256c0 188.333333 153 341.333333 341.333334 341.333333 188.333333 0 341.333333-153 341.333333-341.333333v-298.666667H311.533333z m0 0M770.2 304.5h-131.666667l92.5 92.333333c16.666667 16.666667 16.666667 43.5 0 60.166667s-43.666667 16.666667-60.333333 0l-165.166667-165c-12.166667-12.166667-15.833333-30.333333-9.166666-46.333333 6.5-15.833333 22.166667-26.333333 39.5-26.333334h131.666666l-104.5-104.166666c-8-8-12.5-18.833333-12.5-30 0-11.333333 4.5-22.166667 12.5-30 8.333333-8.333333 19.166667-12.333333 30.166667-12.333334 11 0 21.833333 4.166667 30.166667 12.333334l177.166666 176.666666c12.166667 12.166667 15.833333 30.333333 9.166667 46.333334-6.666667 16.166667-22.333333 26.333333-39.5 26.333333zM120.366667 536.333333l77.166666-44.5c6.833333-3.833333 14.166667-5.666667 21.333334-5.666666 14.666667 0 29 7.666667 37 21.333333 11.833333 20.333333 4.833333 46.5-15.666667 58.333333l-77.166667 44.5c-20.333333 11.666667-46.5 4.833333-58.333333-15.666666-11.666667-20.333333-4.833333-46.5 15.666667-58.333334zM369.7 682.666667c7.833333-13.666667 22.333333-21.333333 37-21.333334 7.166667 0 14.5 1.833333 21.333333 5.666667 20.333333 11.666667 27.5 37.833333 15.666667 58.333333L399.866667 801c-11.666667 20.5-37.833333 27.333333-58.333334 15.666667-20.333333-11.666667-27.5-37.833333-15.666666-58.333334L369.7 682.666667z m283.166667 41.333333c23.666667 0 42.666667 19 42.666666 42.666667v86.666666c0 23.666667-19 42.666667-42.666666 42.666667-23.666667 0-42.666667-19-42.666667-42.666667v-86.666666c0-23.666667 19-42.666667 42.666667-42.666667z m241.666666-73.166667c6.833333-3.833333 14.166667-5.666667 21.333334-5.666666 14.666667 0 29 7.666667 37 21.333333l43.666666 75.666667c11.833333 20.333333 4.833333 46.5-15.666666 58.333333-20.333333 11.666667-46.5 4.833333-58.333334-15.666667L878.866667 709.166667c-11.666667-20.5-4.666667-46.5 15.666666-58.333334zM1087.2 485.5c7.166667 0 14.5 1.833333 21.333333 5.666667l77 44.5c20.333333 11.666667 27.5 37.833333 15.666667 58.333333-11.666667 20.5-37.833333 27.5-58.333333 15.666667l-77-44.5c-20.333333-11.666667-27.5-37.833333-15.666667-58.333334 8-13.833333 22.333333-21.333333 37-21.333333z m0 0"  horiz-adv-x="1529" />

    
    <glyph glyph-name="bumen" unicode="&#58929;" d="M997.09749336 159.62674102000005h-73.32869092V392.14763232a15.04178261 15.04178261 0 0 1-15.04178262 15.04178262h-347.21448485V608.37325898H703.78272969a25.14484687 25.14484687 0 0 1 25.06963799 25.069638V808.93036201a25.14484687 25.14484687 0 0 1-25.06963799 25.06963799H377.8774376a25.14484687 25.14484687 0 0 1-25.06963799-25.06963799v-175.48746503a25.14484687 25.14484687 0 0 1 25.06963799-25.069638h146.03064082v-201.18384404H179.82729776A16.29526464 16.29526464 0 0 1 164.15877412 391.52089131v-231.89415029H87.06963799a25.14484687 25.14484687 0 0 1-25.06963799-25.069638v-175.48746503a25.14484687 25.14484687 0 0 1 25.06963799-25.06963799h188.02228359a25.14484687 25.14484687 0 0 1 25.06963799 25.06963799V134.55710302a25.14484687 25.14484687 0 0 1-25.06963799 25.069638h-73.32869004V369.5849584h322.14484688V160.88022305000004H448.07242344a25.14484687 25.14484687 0 0 1-25.06963799-25.06963799v-175.48746504a25.14484687 25.14484687 0 0 1 25.06963799-25.06963799h188.02228447a25.14484687 25.14484687 0 0 1 25.06963711 25.06963799V135.81058506a25.14484687 25.14484687 0 0 1-25.06963711 25.06963799h-74.58217294V369.5849584h324.65181005V159.62674102000005H809.07520888a25.14484687 25.14484687 0 0 1-25.06963799-25.069638v-175.48746503a25.14484687 25.14484687 0 0 1 25.06963799-25.06963799h188.02228448a25.14484687 25.14484687 0 0 1 25.06963799 25.06963799V134.55710302a25.14484687 25.14484687 0 0 1-25.06963799 25.069638z"  horiz-adv-x="1092" />

    
    <glyph glyph-name="bangong1" unicode="&#59528;" d="M922.094711 699.826654h-78.624166V799.572091c0 52.836393-43.023456 95.859849-95.866627 95.859849H268.414488c-52.836393 0-95.859849-43.023456-95.859849-95.859849v-99.745437H93.922339c-51.810089 0-93.921123-42.111034-93.921122-93.921122V234.78586c0-51.811444 42.111034-93.922478 93.921122-93.922479h78.630944v-171.636933c0-52.836393 43.023456-95.859849 95.85985-95.859849h479.189429c52.843172 0 95.866628 43.023456 95.866628 95.859849V140.863381h78.624165c51.811444 0 93.921123 42.11239 93.921123 93.922479V605.79436c0.001356 51.811444-42.219494 94.032294-93.919767 94.032294zM227.218587 809.155906c0 19.513348 14.83329 35.37701 33.092568 35.377011h497.222295c18.260633 0 33.093923-15.863662 33.093923-35.377011v-110.470795H227.218587V809.155906zM792.227161-41.272501c0-18.830049-14.949885-34.236822-33.434216-34.236822H257.11429c-18.482976 0-33.434217 15.290179-33.434217 34.236822V307.710441h568.547088V-41.272501z m142.766181 237.487197h-91.524152v130.668799c0 17.688505-14.26523 31.952379-31.957802 31.952379H204.504307c-17.685794 0-31.951023-14.263874-31.951024-31.952379v-130.668799H83.653869c-16.551029 0-30.012297 13.466691-30.012297 30.012297V614.810115c0 16.545606 13.462624 30.123469 30.012297 30.123469h851.222878c16.549673 0 30.012297-13.461268 30.012297-30.123469v-388.694293c0.11795-16.434434-13.350097-29.901125-29.895702-29.901126zM771.229264 513.016137a59.217921 59.217921 0 0 1 29.673359-51.3532c18.371805-10.616899 40.968135-10.616899 59.228767 0 18.371805 10.608765 29.672003 30.123469 29.672003 51.3532 0 21.225664-11.300199 40.739012-29.672003 51.354555-18.378583 10.608765-40.973558 10.608765-59.228767 0-18.377228-10.616899-29.673359-30.128892-29.673359-51.354555z m0 0"  horiz-adv-x="1024" />

    
    <glyph glyph-name="cheliang2" unicode="&#59039;" d="M906.027 709.99h575.296V854.222H92.193v-143.416h593.57v-464.838h-49.11v-330.722h316.2V245.968h-46.826zM41.777 137.794L154.52 249.721h296.296l7.994-7.995 105.4-103.116v-172.132h-40.952v-52.7h-91.369v52.7H171.325v-52.7H79.794v52.7H41.778V137.794z m136.075 55.474l-55.637-55.474h361.559l-55.637 55.474z m-45.358-98.71a39.484 39.484 0 1 1 39.484-39.485 39.81 39.81 0 0 1-39.484 39.484z m342.47 0a39.484 39.484 0 1 1 39.483-39.485 39.81 39.81 0 0 1-39.484 39.484zM212.93 79.872v-49.11h179.31v49.11z m807.96 98.058h30.02v18.274c0 44.705 18.275 84.842 47.643 114.863a162.669 162.669 0 0 0 114.864 47.642h106.868a162.343 162.343 0 0 0 162.506-162.505v-18.274h23.495v-182.9h-41.932v-77.5h-91.369v77.5h-219.61v-77.5h-91.533v77.5h-40.136l-0.653 182.9z m96.59 0h297.11v18.274c0 26.268-10.93 49.763-27.736 67.384s-40.953 27.737-67.385 27.737h-106.868c-26.269 0-49.764-10.932-67.385-27.737a93.98 93.98 0 0 1-27.737-67.384v-18.274z m343.285-54.168l-106.87-15.337v-48.948h106.87v64.285z m-396.638 0v-64.285h106.868v48.948l-106.868 15.337z"  horiz-adv-x="1594" />

    
    <glyph glyph-name="jiankong" unicode="&#58931;" d="M365.69 81.726C117.147 193.638 68.562 439.08 120.014 597.967c58.5 180.768 225.58 299.35 417.14 292.505 186.53-6.64 347.642-139.086 389.411-323.861 41.244-182.23-37.82-391.05-261.615-486.64 17.257-43.144 33.842-86.727 52.446-129.462 2.75-6.23 14.245-11.145 22.26-11.934 16.877-1.843 34.222-0.615 51.304-0.585 23.693 0 41.068-9.946 40.63-34.896-0.469-23.869-18.136-30.86-40.337-30.8-111.327 0.35-222.479 0.116-333.806 0.116-64.176-0.058-128.38 0.468-192.585-0.175-24.19-0.176-45.104 5.44-44.256 33.257 0.79 27.203 22.084 36.037 45.748 32.059 34.37-5.821 49.462 10.003 59.203 40.57 11.173 35.218 26.588 69.148 40.131 103.605z m153.944 41.302c194.048-0.059 351.298 156.139 351.766 349.338C871.81 666.5 713.477 825.038 519.02 824.95c-193.14-0.059-350.362-156.402-352-349.953-1.667-193.491 156.987-351.853 352.614-351.97zM380.694-62.01H649.8c-16 40.394-29.192 76.168-44.607 110.712-2.662 6.114-14.362 11.496-21.996 11.584-50.662 0.965-101.295 0.585-154.267 0.585-15.064-38.377-30.889-78.596-48.234-122.881zM736.175 405.938c-0.058-118.523-97.696-216.336-216.043-216.512-119.78-0.234-219.174 98.896-218.589 217.916 0.556 117.996 98.837 216.395 216.658 216.95 119.313 0.527 218.091-98.427 217.974-218.354z m-367.21 0.322c-0.029-82.779 68.417-151.488 150.61-151.137 82.429 0.41 151.196 69.47 150.758 151.722A149.616 149.616 0 0 1 518.845 556.49c-84.914-0.468-149.821-65.433-149.88-150.23z m154.56 249.652c-28.812 0.147-50.574 22.172-50.077 50.75a48.819 48.819 0 0 0 48.614 48.877c28.46 0.527 52.388-21.762 52.68-49.023 0.263-27.496-23.195-50.72-51.217-50.604z"  horiz-adv-x="1024" />

    
    <glyph glyph-name="ludeng5" unicode="&#58932;" d="M855.6 546.4l55.7 61.8c13.3-14.7 11.8-40.8-3.1-57.8-16.1-17.2-39.2-19-52.6-4z m-687.2-0.2c-13.4-14.7-37.1-12.9-52 4.3-15.5 17-17 42.8-3.6 57.5l55.6-61.8z m375.2-549h39.7c6.2 0 11.2-5 11.2-11.2v-38.8c0-6.2-5-11.2-11.2-11.2H447c-6.2 0-11.2 5-11.2 11.2V-14c0 6.2 5 11.2 11.2 11.2h36.9V602.7c2.3 95.2-12.9 160.2-43.2 187.7-19.3 17.3-41.4 17-55.1 14.1 3.2-10.6 1.8-22.4-4.1-30.2l-5.9 7.4c-0.8-4-30.4-156-148.3-285.5l-158.8 178s77.2 94.3 280.7 136.2l2.6-2.3 23-25.4-23.7 29.6-7.4 9.2c6.4 8.4 16.5 9.5 25.3 4.9 12.4 4.6 50.1 15 83.2-14.7 21.6-19.2 36.3-50.9 44.5-94.6 6-31.9 9.2-70.2 7.4-114.7v-111.3h14.2V599.6c-0.9 42.3 1.4 78.8 6.9 109.6 8.3 46.3 23 79.9 45 99.8 5.5 4 10.1 7.2 14.2 10.1 17.9 10.1 34.5 11.2 48.2 9.5 7.4 0 15.6-1.2 23.9-3.5 7.8 2.9 16.5 1.1 23-6l-4.1-4.9-19-24 18.9 20.3c4.1-0.9 7.2-1.7 11.3-2.6 194.7-43.1 268.9-133.7 268.9-133.7L796.8 496.3C683.3 621.2 652 766.9 649.2 781l-7.3-9.2c-6.4 7.7-7.3 19.2-4.6 30.2-13.8 2.6-35.8 2.9-55.1-14.4-9.2-8.4-17-20.4-23-35.6-0.9-1.7-2.3-4-2.8-6.1-12.9-34.5-18.4-83.7-17.5-145.7v-106.4h12.4v-34.2l13.8 1.1c2.3 0 3.2-4 3.2-6.5 0-2.9-1.4-7.5-3.2-7.5l-13.8 2v-35.4h-7.8v-416.1z"  horiz-adv-x="1024" />

    
    <glyph glyph-name="shebei1" unicode="&#58933;" d="M839.938 387.999v-296.025h-655.77V387.999h655.77M872 419.973H152v-360.062h720V419.973z m-528.122 40.094v-40.095H303.8v40.095h40.078m-3.938 248.022h-32.185v-216.064h-36.14V388h104.446V492.024H339.94V708.089z m380.364-248.022v-40.095h-40.2v40.095h40.2m-3.955 248.022h-32.185v-216.064h-36.121V388h104.445V492.024h-36.14V708.089h0.001zM303.151 311.994h-32.167v-143.997h32.167V311.994z m81.156 0h-32.185v-143.997h32.185V311.994z m81.138 0H433.26v-143.997h32.185V311.994z m81.139 0h-32.185v-143.997h32.185V311.994z m81.139 0H595.66v-143.997h32.063V311.994z m125.399 0h-32.168v-31.956h32.168v31.956z m0-56.02h-32.168v-31.975h32.168v31.975z m0-56.02h-32.168v-31.957h32.168v31.957z"  horiz-adv-x="1024" />

    
    <glyph glyph-name="qingjia3" unicode="&#59003;" d="M104.448 634.368c23.552 12.8 36.352 25.6 38.912 38.912l42.496 100.864c10.24 25.6 27.136 37.376 50.688 34.816h66.048c17.92-10.24 22.016-26.112 11.776-46.592L271.36 665.6c-10.24-17.92-15.36-36.352-15.36-54.272v-625.152c5.12-20.48-5.12-29.696-31.232-27.136H174.08c-20.992 2.56-31.232 11.776-31.232 27.136V486.912c5.12 31.232-4.096 42.496-27.136 34.816-28.672 2.56-41.472 11.776-38.912 27.136v38.912c-2.048 31.232 6.656 46.592 27.648 46.592z m285.184 171.008h189.952c35.84 0 50.688-10.24 45.568-30.208v-266.24c-8.192-53.248-37.376-80.896-86.528-83.456H472.576v-53.248h102.912c24.576 2.56 34.304-10.24 28.672-37.888v-45.568c0-20.48-9.728-30.208-28.672-30.208H472.576v-64.512h98.816c27.648 0 38.4-8.704 32.768-26.624v-53.248c2.56-20.48-9.728-30.208-37.376-30.208H463.872v-83.456c5.632-23.04-4.096-35.328-28.672-37.888H377.344c-13.824 2.56-20.48 11.264-20.48 26.624v778.24c0 28.16 10.752 40.448 32.768 37.888z m82.944-258.56h49.664V706.56h-49.664v-159.744z m230.912-159.744h194.048c27.648-5.12 39.936-18.944 37.376-41.984v-30.208c0-28.16-4.096-49.664-12.288-64.512l-78.336-114.176 32.768-49.664c10.752-12.8 23.552-18.944 37.376-18.944 16.384-7.68 23.552-20.48 20.48-37.888v-45.568c0-12.8-9.728-20.48-28.672-23.04h-46.08c-22.016 5.12-37.376 11.264-45.568 18.944L773.12 25.6l-41.472-41.984c-11.264-17.92-27.648-25.6-49.664-23.04h-41.472c-16.384 2.56-26.112 10.24-28.672 23.04v72.192c2.56 15.36 10.752 21.504 24.576 18.944 13.824 0 23.552 5.12 28.672 15.36l37.376 45.568-32.768 56.832c-11.264 32.768-4.096 47.104 20.48 41.984h61.952l20.48 37.888h-78.336c-13.824-2.56-22.016 5.12-24.576 23.04v60.928c6.144 20.992 17.408 30.72 33.792 30.72z m0 418.304h206.336c27.648-2.56 39.936-15.36 37.376-37.888v-224.256c-5.632-76.288-42.496-115.2-111.616-117.76h-128c-24.576-2.56-37.376 5.12-37.376 23.04V513.024c0 17.92 10.752 25.6 32.768 23.04H793.6c27.648-2.56 38.4 6.144 32.768 26.624V672.256c2.56 23.04-11.264 31.744-41.472 26.624h-82.432c-22.016 0-32.768 5.12-32.768 15.36V782.848c0.512 17.408 11.776 25.088 33.792 22.528z"  horiz-adv-x="1024" />

    
    <glyph glyph-name="zijin" unicode="&#58934;" d="M480.024 273.28H351.448a32 32 0 0 0 0 64h89.408l-72.832 126.144a32.512 32.512 0 0 0 56.192 32.448l88-152.512 88.128 152.512a32.512 32.512 0 0 0 56.192-32.384l-72.96-126.272H672.6a32 32 0 0 0 0-64H544.024v-64H672.6a32 32 0 0 0 0-64H544.024v-96.128a32.256 32.256 0 0 0-32-31.872 31.616 31.616 0 0 0-32 31.872v96.128H351.448a32 32 0 0 0 0 64h128.576v64zM653.144 640h-282.24l-2.112-0.832a347.52 347.52 0 0 1-44.864-23.04 530.944 530.944 0 0 1-102.784-79.36A487.872 487.872 0 0 1 93.656 323.84c-36.8-126.08-31.36-224.64-1.152-297.984 8.64-20.928 16.832-34.048 21.376-39.424l4.16-6.208c10.56-20.48 45.44-40.32 71.36-40.32h322.624V-128H189.4c-49.28 0-106.112 31.68-129.92 73.6A238.976 238.976 0 0 0 29.72 0c-36.16 87.616-42.432 202.048-1.28 342.912a555.52 555.52 0 0 0 144.896 242.24 598.464 598.464 0 0 0 136.32 100.992l-52.928 99.392C226.904 841.344 259.096 896 322.136 896h189.888v-67.968H322.136c-11.456 0-11.264 0.32-5.504-10.496L377.176 704h269.696l60.544 113.536c5.76 10.816 5.952 10.496-5.504 10.496H512.024V896h189.888c63.04 0 95.232-54.656 65.408-110.464l-52.992-99.392a598.464 598.464 0 0 0 136.32-100.992 555.52 555.52 0 0 0 144.96-242.24c41.152-140.8 34.88-255.36-1.28-342.912a238.976 238.976 0 0 0-29.76-54.4c-23.808-41.92-80.64-73.6-129.92-73.6H512.024v67.968h322.624c25.92 0 60.8 19.84 71.36 40.32l4.16 6.208c4.544 5.376 12.736 18.496 21.376 39.424 30.272 73.344 35.648 171.968-1.152 297.984a487.872 487.872 0 0 1-127.488 212.864 530.944 530.944 0 0 1-102.784 79.36 347.52 347.52 0 0 1-44.8 23.04l-2.24 0.832z"  horiz-adv-x="1024" />

    
    <glyph glyph-name="tongzhi1" unicode="&#59017;" d="M813.2 102H204.9c-14.1 0-25.5 7.3-32.2 20.7l-0.6 1.1-0.4 1.2c-3.9 11.6-2.4 24.1 3.9 33.6l0.3 0.5 76.9 107.3c3.7 5.2 5.7 11.2 5.7 17.6V442c0 54.2 17.1 105.8 49.4 149.2 31 41.6 73.3 72.2 122.6 88.7 4.6 2.7 12.6 5.3 28.1 8.4 9.9 2 29.6 5.2 50.9 5.2 21.1 0 40.7-3.3 50.5-5.3 15-3 22.9-5.6 27.6-8.3 49.3-16.5 91.7-47.2 122.7-88.8 32.3-43.4 49.4-94.9 49.4-149.2v-158.1c0-6.4 2-12.4 5.7-17.6l77-107.5 0.2-0.3c7.9-11.9 9-25.6 2.9-37.7l-0.5-1-0.6-0.9c-7.3-10.7-18.7-16.8-31.2-16.8z m-607.6 36h607.3c-0.1 0.1-0.2 0.3-0.3 0.5l-76.6 107c-8.1 11.3-12.4 24.6-12.4 38.6V442c0 93.6-60.4 175.9-150.3 204.7l-17.9 5.7c-11.8 2.5-28.9 5.1-46 5.1-17.6 0-35.2-2.7-47.1-5.2l-17.5-5.6c-90-28.8-150.4-111.1-150.4-204.7v-158.1c0-13.9-4.3-27.3-12.4-38.6l-76.4-106.6v-0.7z m0.1 0.9zM461.6 670.5v0.8c0 25.8 21.5 46.8 47.9 46.8s47.9-21 47.9-46.8v-0.2l34.6-14.8c0.9 4.9 1.4 9.9 1.4 15 0 45.7-37.5 82.8-83.9 82.8s-83.9-37.1-83.9-82.8v-0.2l36-0.6zM585.9 127.10000000000002c-0.1-41.4-34.4-75-76.5-75s-76.5 33.6-76.5 75h-36c0.1-61.3 50.4-111 112.5-111s112.5 49.7 112.5 111h-36z"  horiz-adv-x="1024" />

    
    <glyph glyph-name="ludeng6" unicode="&#58935;" d="M936 327.82L679.14 523c-1.33 1-2.69 1.95-4.08 2.84v105a201 201 0 0 1-401.95 0v-1.17h-142.9V798.78a33 33 0 0 1-66 0v-829.34a33 33 0 0 1 66 0V563.62h175.9a33 33 0 0 1 33 33 2.71 2.71 0 0 1 0 0.29V630.79a135 135 0 0 0 269.95 0v-105c-1.38-0.89-2.74-1.83-4.07-2.84L348.1 327.82a61.29 61.29 0 0 1 37.07-110.09h125.92c7.58-65.55 63.42-116.62 131-116.62s123.4 51.07 131 116.62H899a61.29 61.29 0 0 1 37 110.09zM642 167.11a66 66 0 0 0-64 50.62h128.13a66 66 0 0 0-64.07-50.62zM399.17 283.73l242.89 184.54L885 283.73z"  horiz-adv-x="1024" />

    
    <glyph glyph-name="cheliang3" unicode="&#58943;" d="M204.8 93.44h-76.8c-38.4 0-69.12 30.72-69.12 69.12v17.92c0 14.08 11.52 25.6 25.6 25.6s25.6-11.52 25.6-25.6v-17.92c0-10.24 7.68-17.92 17.92-17.92h76.8c14.08 0 25.6-11.52 25.6-25.6s-11.52-25.6-25.6-25.6zM583.68 93.44H439.04c-14.08 0-25.6 11.52-25.6 25.6s11.52 25.6 25.6 25.6h144.64c14.08 0 25.6-11.52 25.6-25.6s-11.52-25.6-25.6-25.6zM85.76 149.76c-14.08 0-25.6 11.52-25.6 25.6V701.44c0 37.12 32 66.56 71.68 66.56h450.56c39.68 0 71.68-29.44 71.68-66.56v-382.72c0-14.08-11.52-25.6-25.6-25.6s-25.6 11.52-25.6 25.6V701.44c0 8.96-8.96 15.36-20.48 15.36H131.84c-11.52 0-20.48-6.4-20.48-15.36v-526.08c0-14.08-11.52-25.6-25.6-25.6zM677.12 93.44H588.8c-14.08 0-25.6 11.52-25.6 25.6s11.52 25.6 25.6 25.6h88.32c14.08 0 25.6-11.52 25.6-25.6s-11.52-25.6-25.6-25.6zM919.04 93.44h-28.16c-14.08 0-25.6 11.52-25.6 25.6s11.52 25.6 25.6 25.6h28.16c5.12 0 10.24 3.84 10.24 10.24V368.64c0 2.56-1.28 5.12-2.56 6.4L775.68 546.56c-1.28 2.56-3.84 3.84-7.68 3.84H627.2c-14.08 0-25.6 11.52-25.6 25.6s11.52 25.6 25.6 25.6h142.08c17.92 0 34.56-7.68 46.08-20.48L965.12 409.6c10.24-11.52 15.36-25.6 15.36-39.68v-213.76c-1.28-34.56-28.16-62.72-61.44-62.72zM335.36-5.12c-69.12 0-125.44 56.32-125.44 125.44s56.32 125.44 125.44 125.44 125.44-56.32 125.44-125.44-56.32-125.44-125.44-125.44z m0 198.4c-40.96 0-74.24-33.28-74.24-74.24 0-40.96 33.28-74.24 74.24-74.24s74.24 33.28 74.24 74.24c-1.28 40.96-34.56 74.24-74.24 74.24zM783.36-5.12c-69.12 0-125.44 56.32-125.44 125.44s56.32 125.44 125.44 125.44 125.44-56.32 125.44-125.44-56.32-125.44-125.44-125.44z m0 198.4c-40.96 0-74.24-33.28-74.24-74.24 0-40.96 33.28-74.24 74.24-74.24 40.96 0 74.24 33.28 74.24 74.24-1.28 40.96-34.56 74.24-74.24 74.24zM938.24 284.16H111.36c-14.08 0-25.6 11.52-25.6 25.6s11.52 25.6 25.6 25.6h828.16c14.08 0 25.6-11.52 25.6-25.6s-12.8-25.6-26.88-25.6z"  horiz-adv-x="1024" />

    
    <glyph glyph-name="ludeng7" unicode="&#58936;" d="M487.5776 787.12832H341.07392v-49.79712c55.72608-10.98752 97.66912-58.8288 97.66912-116.19328 0-65.4848-54.66112-118.5792-122.09152-118.5792S194.56 555.66336 194.56 621.14816c0 57.36448 41.94304 105.20576 97.66912 116.19328V834.56h439.54176v-94.85312h-48.8448v47.42144H536.4224v-618.92608c55.72608-10.98752 97.66912-58.8288 97.66912-116.19328C634.09152-13.47584 579.4304-66.56 512-66.56s-122.09152 53.08416-122.09152 118.56896c0 57.36448 41.94304 105.20576 97.66912 116.19328V787.12832zM316.65152 550.00064c40.45824 0 73.25696 31.8464 73.25696 71.13728s-32.79872 71.13728-73.25696 71.13728c-40.448 0-73.25696-31.8464-73.25696-71.13728s32.79872-71.13728 73.25696-71.13728z m390.69696-47.43168c-67.4304 0-122.09152 53.08416-122.09152 118.56896 0 65.4848 54.66112 118.56896 122.09152 118.56896S829.44 686.62272 829.44 621.12768c0-65.47456-54.66112-118.55872-122.09152-118.55872z m0 47.43168c40.448 0 73.25696 31.8464 73.25696 71.13728s-32.79872 71.13728-73.25696 71.13728-73.25696-31.8464-73.25696-71.13728 32.79872-71.13728 73.25696-71.13728zM512-19.1488c40.45824 0 73.25696 31.85664 73.25696 71.14752S552.448 123.14624 512 123.14624s-73.25696-31.8464-73.25696-71.13728S471.552-19.12832 512-19.12832z"  horiz-adv-x="1024" />

    
    <glyph glyph-name="jiaose" unicode="&#58994;" d="M492 830c-143.1 0-259.5-117.1-259.5-261.2 0-102.7 59.2-191.8 145.1-234.4-60.1-18.5-115.2-51.6-160.9-97.6-73.5-74-114-172.4-114-277 0-12 9.7-21.8 21.6-21.8 12 0 21.6 9.7 21.6 21.8 0 93 36 180.4 101.3 246.2 63 63.4 146 99.3 234.7 101.8 3.3-0.1 6.6-0.2 9.9-0.2 143.1 0 259.5 117.1 259.5 261.2C751.5 712.8 635.1 830 492 830z m3.5-478.8c-1.2 0.2-2.4 0.3-3.5 0.3-3.3 0-6.6 0-9.8-0.1-114.7 5.2-206.4 100.7-206.4 217.4 0 120 97 217.6 216.2 217.6s216.2-97.6 216.2-217.6c0.1-118.8-95.1-215.7-212.7-217.6zM603.5-62l-156 156 58 58 98-97.9 259.8 259.8 58-58.1z"  horiz-adv-x="1024" />

    
    <glyph glyph-name="ludeng8" unicode="&#58937;" d="M578.048 164.352H476.672v419.84h100.864v-419.84z m-74.24 27.136h47.616V557.056h-47.616v-365.568zM596.992 557.056H456.704V631.808C411.648 656.384 384 702.464 384 753.152 384 830.464 448.512 892.928 527.872 892.928c78.336 0 142.848-62.464 143.872-139.776 0-51.712-28.16-98.304-74.24-122.88l-0.512-73.216z m-113.152 27.136h86.528l0.512 63.488 7.68 3.584c40.96 18.944 66.56 57.856 66.56 101.888-1.024 62.464-53.248 113.152-117.248 113.152-64.512 0-117.248-50.688-117.248-113.152 0-43.008 25.088-81.92 65.536-101.376l7.68-3.584v-64zM671.744 325.632H381.952c-82.944 0-150.016 65.536-150.016 145.92v23.552h84.992v-13.312c0-53.248 45.056-76.288 89.6-76.288H655.36c52.736 0 89.6 31.232 89.6 75.264v13.312l13.312 1.024h63.488v-23.552c0-80.384-67.072-145.92-150.016-145.92zM259.072 468.48c1.536-64 56.32-115.712 123.392-115.712h289.792c67.072 0 121.344 51.712 123.392 116.224h-24.064c-6.144-53.248-52.224-89.6-115.712-89.6H406.528c-64 0-110.08 36.352-115.712 89.6h-31.744zM838.656 454.656h-109.056V508.928C696.832 527.36 675.84 562.176 675.84 599.552c0 37.376 20.48 72.192 53.76 90.624 32.768 17.92 73.728 18.432 107.008 0 33.28-17.92 54.272-52.736 54.272-90.624 0-37.376-19.968-70.656-52.224-89.6v-55.296zM756.224 481.28h55.296v45.056l7.68 3.584c27.648 13.312 44.544 39.936 44.544 69.632 0 28.16-15.36 53.76-39.936 67.072-25.6 13.824-56.832 13.824-80.896 0-24.576-13.824-39.936-39.424-39.936-67.072 0-29.696 17.92-57.344 46.08-70.656l7.68-3.584V481.28zM330.752 462.336H221.184V517.12c-32.768 18.432-53.76 53.248-53.76 90.624 0 57.856 48.128 104.96 107.52 104.96s107.52-47.104 107.52-104.96c0-37.376-19.968-70.656-52.224-89.6v-55.808z m-82.432 27.136h55.296v45.056l7.68 3.584c27.648 13.312 44.544 39.936 44.544 69.632 0 43.008-36.352 78.336-80.896 78.336C230.4 686.08 194.56 650.752 194.56 607.744c0-29.696 17.92-57.344 46.08-70.656l7.68-3.584v-44.032zM668.16-122.88H387.072c-7.68 0-14.336 6.144-14.336 14.336v70.656H419.84l15.36 179.2c0 25.088 21.504 46.08 48.128 46.08h89.6c26.112 0 47.616-20.992 48.128-46.592l14.336-178.688h47.104v-70.656c-0.512-8.192-6.656-14.336-14.336-14.336zM399.36-96.256h256v31.232h-45.056l-16.384 204.8c0 11.264-9.728 20.48-21.504 20.48H482.816c-11.776 0-20.992-9.216-20.992-20.48l-17.408-204.8H399.36v-31.232z"  horiz-adv-x="1024" />

    
    <glyph glyph-name="jigou2" unicode="&#58939;" d="M315.845253 53.144691h-55.284418c-9.410114 0-17.643963-8.23385-17.643964-17.643963v-55.284419c0-9.410114 8.23385-17.643963 17.643964-17.643963h55.284418c9.410114 0 17.643963 8.23385 17.643964 17.643963v55.284419c0 9.410114-8.23385 17.643963-17.643964 17.643963z m0 416.397537h-55.284418c-9.410114 0-17.643963-8.23385-17.643964-17.643963v-55.284419c0-9.410114 8.23385-17.643963 17.643964-17.643964h55.284418c9.410114 0 17.643963 8.23385 17.643964 17.643964v55.284419c0 9.410114-8.23385 17.643963-17.643964 17.643963z m0-138.799179h-55.284418c-9.410114 0-17.643963-8.23385-17.643964-17.643963v-55.284419c0-9.410114 8.23385-17.643963 17.643964-17.643963h55.284418c9.410114 0 17.643963 8.23385 17.643964 17.643963v55.284419c0 10.586378-8.23385 17.643963-17.643964 17.643963z m0-138.799179h-55.284418c-9.410114 0-17.643963-8.23385-17.643964-17.643963V119.015488c0-9.410114 8.23385-17.643963 17.643964-17.643963h55.284418c9.410114 0 17.643963 8.23385 17.643964 17.643963v55.284419c0 9.410114-8.23385 17.643963-17.643964 17.643963z m0 416.397537h-55.284418c-9.410114 0-17.643963-8.23385-17.643964-17.643963v-55.284419c0-9.410114 8.23385-17.643963 17.643964-17.643964h55.284418c9.410114 0 17.643963 8.23385 17.643964 17.643964v55.284419c0 10.586378-8.23385 17.643963-17.643964 17.643963z m659.884233-735.165143h-929.248741c-9.410114 0-17.643963 8.23385-17.643963 17.643964v56.460683c0 9.410114 8.23385 17.643963 17.643963 17.643963h51.755626V668.330883c0 19.996492 11.762642 37.640455 29.406606 44.69804L435.824205 891.821086c15.291435 7.057585 32.935398 4.705057 45.874305-3.528793 14.115171-9.410114 22.34902-24.701549 22.34902-41.169248v-882.198171h55.284419V767.137078c0 17.643963 9.410114 34.111663 24.701548 42.345512 15.291435 9.410114 34.111663 8.23385 49.403098 0L899.272311 654.215712c15.291435-9.410114 24.701549-24.701549 24.701548-42.345512v-648.12159h52.931891c9.410114 0 17.643963-8.23385 17.643963-17.643964v-56.460683c-1.176264-9.410114-9.410114-16.467699-18.820227-16.467699zM767.530717 324.861728h-55.284419c-9.410114 0-17.643963-8.23385-17.643963-17.643963v-55.284419c0-9.410114 8.23385-17.643963 17.643963-17.643964h55.284419c9.410114 0 17.643963 8.23385 17.643964 17.643964V307.217765c0 10.586378-8.23385 17.643963-17.643964 17.643963z m0 278.774622h-55.284419c-9.410114 0-17.643963-8.23385-17.643963-17.643963V530.707968c0-9.410114 8.23385-17.643963 17.643963-17.643963h55.284419c9.410114 0 17.643963 8.23385 17.643964 17.643963v55.284419c0 9.410114-8.23385 17.643963-17.643964 17.643963z m0-416.397537h-55.284419c-9.410114 0-17.643963-8.23385-17.643963-17.643963v-55.284419c0-9.410114 8.23385-17.643963 17.643963-17.643963h55.284419c9.410114 0 17.643963 8.23385 17.643964 17.643963v55.284419c0 9.410114-8.23385 17.643963-17.643964 17.643963z m0-139.975443h-55.284419c-9.410114 0-17.643963-8.23385-17.643963-17.643963v-55.284419c0-9.410114 8.23385-17.643963 17.643963-17.643964h55.284419c9.410114 0 17.643963 8.23385 17.643964 17.643964v55.284419c0 10.586378-8.23385 17.643963-17.643964 17.643963z m0 417.573801h-55.284419c-9.410114 0-17.643963-8.23385-17.643963-17.643963v-55.284419c0-9.410114 8.23385-17.643963 17.643963-17.643963h55.284419c9.410114 0 17.643963 8.23385 17.643964 17.643963v55.284419c0 9.410114-8.23385 17.643963-17.643964 17.643963z"  horiz-adv-x="1024" />

    
    <glyph glyph-name="ziyuan" unicode="&#58990;" d="M362.88 674.24A160 160 0 0 0 352 736a6.4 6.4 0 0 0 0 2.24A448 448 0 0 1 59.52 320a430.4 430.4 0 0 1 6.08-70.72h1.6a162.88 162.88 0 0 0 60.8 21.44A357.44 357.44 0 0 0 124.16 320a384 384 0 0 0 238.72 354.24z m310.72 64V736a160 160 0 0 0-12.48-61.76A384 384 0 0 0 899.84 320a366.72 366.72 0 0 0-3.84-49.92 167.68 167.68 0 0 0 58.56-20.16l3.2-2.24a442.24 442.24 0 0 1-284.16 490.56zM739.2 9.6a387.84 387.84 0 0 0-462.4 5.76 160 160 0 0 0-48-41.92h-2.24a455.04 455.04 0 0 1 562.24-6.4 162.24 162.24 0 0 0-49.6 42.56zM512 608a128 128 0 1 1-128 128 128 128 0 0 1 128-128z m0 192a64 64 0 1 0-64-64 64 64 0 0 0 64 64zM260.16 176a129.92 129.92 0 0 1-112.32 64 128 128 0 0 1-64-17.28 128 128 0 0 1-47.68-174.72A129.92 129.92 0 0 1 212.8 0a128 128 0 0 1 47.36 176z m-79.68-119.36a64 64 0 0 0-88.32 23.36 64 64 0 0 0 55.68 96 64 64 0 0 0 56.32-32 64 64 0 0 0-23.68-87.36zM940.48 224a128 128 0 0 1-64 17.28 129.92 129.92 0 0 1-112.32-64 128 128 0 0 1 112-192 128 128 0 0 1 112 64A128 128 0 0 1 940.48 224z m-8.64-142.72a64 64 0 0 0-88.32-23.36 64 64 0 0 0-23.68 87.36 64 64 0 0 0 56.32 32 64 64 0 0 0 55.68-96z"  horiz-adv-x="1024" />

    
    <glyph glyph-name="tongzhi2" unicode="&#59032;" d="M1133.679466 347.44542h-73.140611a36.570305 36.570305 0 1 0 0 73.140611h73.140611a36.570305 36.570305 0 1 0 0-73.140611z m-146.281222 438.770523v36.570306l73.140611 73.14061 36.570305-36.570305v-36.570305l-73.14061-73.140611-36.570306 36.570305z m-164.566374-542.922753A35.692618 35.692618 0 0 0 804.546717 237.734504a36.570305 36.570305 0 0 0 0 73.140611v1.828515a91.425763 91.425763 0 0 1 0 179.194496v1.755375a36.570305 36.570305 0 0 0 0 73.14061c6.802077 0 12.872747-2.3405 18.285153-5.558686A163.322984 163.322984 0 0 0 950.827939 402.300878a163.322984 163.322984 0 0 0-127.996069-159.007688zM658.265496-127.96855s-34.668649-1.316531-55.440583 13.238451L255.992137 128.023588H73.140611a73.140611 73.140611 0 0 0-73.140611 73.140611v365.703053a73.140611 73.140611 0 0 0 73.140611 73.140611h182.851526L602.824913 882.615268a70.068705 70.068705 0 0 0 41.90957 13.16531S731.406107 901.778108 731.406107 822.786249V-54.827939a73.140611 73.140611 0 0 0-73.140611-73.140611zM658.265496 749.718779c0 76.139376-36.570305 36.570305-36.570305 36.570305l-329.132748-219.421832H109.710916A36.570305 36.570305 0 0 1 73.140611 530.296947v-292.562443a36.570305 36.570305 0 0 1 36.570305-36.570305H292.562443L621.695191-18.257634s36.570305-31.962447 36.570305 0V749.718779zM1097.10916-54.827939v-36.570305l-36.570305-36.570306-73.140611 73.140611v36.570305l36.570306 36.570306 73.14061-73.140611z"  horiz-adv-x="1170" />

    
    <glyph glyph-name="qingjia4" unicode="&#58949;" d="M400.118519 188.681481c0 30.340741 3.792593 58.785185 13.274074 85.333334 9.481481 28.444444 20.859259 53.096296 37.925926 75.851852 17.066667 22.755556 36.02963 43.614815 56.888888 60.681481 20.859259 17.066667 45.511111 32.237037 72.05926 41.718519 1.896296 3.792593 3.792593 7.585185 5.688889 15.17037l3.792592 11.377778c0 3.792593 1.896296 7.585185 3.792593 9.481481 5.688889 1.896296 9.481481 3.792593 15.17037 9.481482 3.792593 3.792593 7.585185 9.481481 11.377778 15.17037 3.792593 5.688889 5.688889 15.17037 5.688889 26.548148v20.85926c-1.896296 5.688889-3.792593 9.481481-5.688889 13.274074-1.896296 3.792593-5.688889 7.585185-9.481482 9.481481 0 20.859259-1.896296 41.718519-3.792592 62.577778-3.792593 17.066667-7.585185 36.02963-13.274074 56.888889-5.688889 18.962963-15.17037 37.925926-28.444445 53.096296-5.688889 7.585185-13.274074 15.17037-24.651852 20.859259-9.481481 7.585185-20.859259 13.274074-34.133333 18.962963-13.274074 5.688889-26.548148 9.481481-41.718518 13.274074-15.17037 3.792593-28.444444 5.688889-43.614815 5.688889-11.377778 0-24.651852-1.896296-36.02963-3.792592-13.274074-1.896296-26.548148-5.688889-37.925926-9.481482-13.274074-5.688889-26.548148-13.274074-37.925926-20.859259-13.274074-9.481481-24.651852-20.859259-36.029629-36.02963-11.377778-15.17037-18.962963-32.237037-24.651852-51.2-5.688889-18.962963-9.481481-36.02963-11.377778-53.096296-1.896296-18.962963-3.792593-37.925926-3.792593-58.785185-3.792593-5.688889-7.585185-9.481481-9.481481-15.170371-1.896296-5.688889-3.792593-11.377778-3.792593-18.962963s0-15.17037 3.792593-22.755555c1.896296-9.481481 5.688889-15.17037 9.481481-20.859259 3.792593-3.792593 7.585185-9.481481 9.481482-11.377778l11.377778-5.688889c1.896296-7.585185 5.688889-15.17037 7.585185-22.755556 1.896296-7.585185 5.688889-13.274074 9.481481-18.962963 3.792593-5.688889 7.585185-11.377778 11.377778-15.17037 9.481481-7.585185 17.066667-15.17037 24.651852-20.859259 7.585185-7.585185 11.377778-17.066667 13.274074-28.444445v-22.755555c0-5.688889-1.896296-13.274074-3.792593-18.962963-3.792593-5.688889-7.585185-13.274074-13.274074-18.962963-5.688889-5.688889-13.274074-13.274074-24.651851-18.962963-9.481481-5.688889-18.962963-9.481481-30.340741-15.17037l-34.133334-11.377778c-13.274074-3.792593-24.651852-7.585185-36.029629-9.481482-11.377778-3.792593-20.859259-9.481481-30.340741-15.17037-9.481481-5.688889-17.066667-13.274074-24.651852-20.859259-5.688889-7.585185-11.377778-18.962963-13.274074-30.340741-5.688889-34.133333-5.688889-60.681481-3.792592-81.540741 3.792593-20.859259 7.585185-34.133333 13.274074-37.925926 3.792593-1.896296 11.377778-5.688889 22.755555-7.585185 11.377778-1.896296 26.548148-5.688889 43.614815-7.585185 17.066667-3.792593 36.02963-5.688889 56.888889-7.585185l62.577778-5.688889c20.859259-1.896296 41.718519-1.896296 62.577777-3.792593 20.859259-1.896296 37.925926-1.896296 53.096297-1.896296h20.859259c-13.274074 20.859259-22.755556 43.614815-28.444444 68.266667-9.481481 24.651852-13.274074 49.303704-13.274074 75.851851zM902.637037 289.185185c-13.274074 28.444444-30.340741 54.992593-53.096296 77.748148-22.755556 20.859259-47.407407 39.822222-77.748148 51.2-30.340741 13.274074-60.681481 18.962963-94.814815 18.962963-34.133333 0-66.37037-5.688889-96.711111-18.962963-30.340741-13.274074-54.992593-30.340741-77.748148-51.2-22.755556-20.859259-39.822222-47.407407-53.096297-77.748148-13.274074-28.444444-18.962963-60.681481-18.962963-92.918518s5.688889-64.474074 18.962963-92.918519c13.274074-28.444444 30.340741-54.992593 53.096297-77.748148 22.755556-20.859259 47.407407-39.822222 77.748148-51.2 30.340741-13.274074 62.577778-18.962963 96.711111-18.962963 34.133333 0 66.37037 5.688889 94.814815 18.962963 30.340741 13.274074 54.992593 30.340741 77.748148 51.2 22.755556 20.859259 39.822222 47.407407 53.096296 77.748148 13.274074 28.444444 18.962963 60.681481 18.962963 92.918519 0 32.237037-7.585185 62.577778-18.962963 92.918518z m-166.874074-172.562963c-7.585185 0-15.17037 3.792593-20.859259 9.481482l-58.785185 60.681481c-5.688889 5.688889-9.481481 13.274074-9.481482 20.859259V327.111111c0 17.066667 13.274074 30.340741 30.340741 30.340741 17.066667 0 30.340741-13.274074 30.340741-30.340741v-106.192592l51.2-51.2c11.377778-11.377778 11.377778-30.340741 0-41.718519-7.585185-9.481481-15.17037-11.377778-22.755556-11.377778z"  horiz-adv-x="1024" />

    
    <glyph glyph-name="hetong3" unicode="&#58941;" d="M186.20201 69.671543a72.044755 72.044755 0 0 1 144.08951 0 72.044755 72.044755 0 0 1-144.08951 0zM417.186726 895.477023H99.708167a40.136354 40.136354 0 0 1-40.136354-40.136354v-943.204315a40.136354 40.136354 0 0 1 40.136354-40.136354h317.478559a40.136354 40.136354 0 0 1 40.136354 40.136354V855.340669a40.136354 40.136354 0 0 1-40.136354 40.136354zM178.776784 776.673416h158.939961v-392.734223H178.776784z m80.272708-829.016389A122.014516 122.014516 0 1 0 380.662644 69.671543a122.616561 122.616561 0 0 0-122.415879-122.014516zM741.889829 152.954477a68.833847 68.833847 0 1 1 78.065208-59.201122A69.034529 69.034529 0 0 1 741.889829 152.954477z m220.749946-193.657907l-120.409062 903.067961A38.330218 38.330218 0 0 1 797.880042 895.477023L493.445798 855.340669A38.129536 38.129536 0 0 1 460.935352 812.595453l120.409061-903.067962a38.330218 38.330218 0 0 1 43.146581-32.711129l304.634925 40.136354A38.129536 38.129536 0 0 1 962.639775-40.70343zM584.756003 752.390922l152.317463 20.068177 50.571806-376.278318-152.317463-20.068177z m182.62041-784.264355a117.800199 117.800199 0 1 0 102.548384 132.249286 119.004289 119.004289 0 0 0-102.548384-132.249286z"  horiz-adv-x="1024" />

    
    <glyph glyph-name="tongji1" unicode="&#58942;" d="M96-38.4c-19.2 0-32 12.8-32 32v768c0 19.2 12.8 32 32 32s32-19.2 32-32v-768c0-19.2-12.8-32-32-32z m192 19.2c-19.2 0-32 19.2-32 32V307.2c0 19.2 12.8 32 32 32s32-12.8 32-32v-294.4c0-12.8-12.8-32-32-32z m166.4 0c-19.2 0-32 12.8-32 32V473.6c0 19.2 12.8 32 32 32s32-12.8 32-32v-460.8c0-12.8-12.8-32-32-32z m172.8 0c-19.2 0-32 12.8-32 32V262.4c0 19.2 12.8 32 32 32s32-12.8 32-32v-243.2c0-19.2-19.2-38.4-32-38.4zM960-6.4c0-19.2-12.8-32-32-32H96c-19.2 0-32 12.8-32 32s12.8 32 32 32h832c19.2 0 32-19.2 32-32zM243.2 512c-6.4 0-19.2 0-25.6 12.8-6.4 12.8-6.4 32 6.4 44.8l147.2 115.2c6.4 6.4 12.8 6.4 25.6 6.4l230.4-32 102.4 102.4c12.8 12.8 32 12.8 44.8 0 12.8-12.8 12.8-32 0-44.8L665.6 601.6c-12.8-6.4-25.6-6.4-32-6.4l-236.8 32-134.4-108.8c-6.4-6.4-12.8-6.4-19.2-6.4zM793.6 646.4c-12.8 0-32 12.8-32 25.6l-6.4 76.8-70.4-12.8c-19.2 0-32 6.4-38.4 25.6 0 19.2 6.4 32 25.6 38.4l70.4 12.8c12.8 0 32 0 44.8-12.8 12.8-12.8 19.2-25.6 25.6-44.8l6.4-76.8c6.4-12.8-6.4-25.6-25.6-32z m0-652.8c-19.2 0-32 12.8-32 32v384c0 19.2 12.8 32 32 32s32-12.8 32-32v-384c0-19.2-12.8-32-32-32z"  horiz-adv-x="1024" />

    
    <glyph glyph-name="cheliang4" unicode="&#58944;" d="M903.944733 895.995202H658.067781a202.990579 202.990579 0 0 1-195.609104-143.938774H305.89758a167.0797 167.0797 0 0 1-145.562699-87.728838L18.46292 390.364124a156.930171 156.930171 0 0 1-18.453689-75.549403v-175.457675a123.750438 123.750438 0 0 1 123.528994-123.049198h41.594615a144.344755 144.344755 0 0 1 288.652603 0h205.500281a144.344755 144.344755 0 0 1 288.652603 0h41.594615a123.750438 123.750438 0 0 1 123.528994 123.049198V691.343791A212.032886 212.032886 0 0 1 903.944733 895.995202zM534.538786 691.269976a123.750438 123.750438 0 0 0 123.528995 123.086106h245.840044a123.750438 123.750438 0 0 0 123.528994-123.086106v-163.27824a123.750438 123.750438 0 0 0-123.528994-123.049198H658.067781a123.750438 123.750438 0 0 0-123.528995 123.049198zM308.259652-44.700048a60.934081 60.934081 0 1 0 61.155525 60.934081 59.716138 59.716138 0 0 0-61.155525-60.897174z m492.93494 0a60.934081 60.934081 0 1 0 0 121.794347 60.454285 60.454285 0 0 0 61.155526-60.934081 59.716138 59.716138 0 0 0-61.155526-60.823359z m184.53689 142.573201h-67.28215a146.706827 146.706827 0 0 1-117.439276 60.934081 143.237534 143.237534 0 0 1-117.439277-60.934081h-258.093294a146.706827 146.706827 0 0 1-117.439277 60.934081 143.237534 143.237534 0 0 1-117.439277-60.934081H123.316781a41.926781 41.926781 0 0 0-41.594615 41.446986v175.457675a89.205133 89.205133 0 0 0 8.562512 36.538304L232.156639 625.464121a85.182228 85.182228 0 0 0 73.408775 45.063909h145.562698v-143.938774A206.34915 206.34915 0 0 1 656.960559 322.085474h245.840045a206.312243 206.312243 0 0 1 123.528994 41.410079v-225.393358a39.859968 39.859968 0 0 0-40.450486-40.192134zM348.599416 507.286697H266.62813a41.446985 41.446985 0 1 1 0-82.857063h81.971286a41.963689 41.963689 0 0 1 41.594615 41.446985 41.151726 41.151726 0 0 1-41.594615 41.410078z"  horiz-adv-x="1113" />

    
    <glyph glyph-name="vehicle" unicode="&#59290;" d="M814.83789312 404.86956562a26.75944219 26.75944219 0 0 0-26.75944313 26.75944219V715.7830875c-1.01997844 11.47976062-7.99983375 14.35970063-12.13974656 14.23970344h-175.0963528a26.75944219 26.75944219 0 0 0-26.69944313 26.73944343 26.75944219 26.75944219 0 0 0 26.75944219 26.7594422h175.27634812a66.37861687 66.37861687 0 0 0 65.35863844-64.1986622l0.13999781-3.71992312v-283.99408313a26.75944219 26.75944219 0 0 0-26.75944312-26.75944218M399.56654469-66.00062531000003H123.37229844a62.35870125 62.35870125 0 0 0-45.99904219 18.73960968 56.73881813 56.73881813 0 0 0-14.99968688 45.33905532V712.84314937a68.73856781 68.73856781 0 0 0 24.49948969 56.2788272 66.91860562 66.91860562 0 0 0 46.39903313 14.37970032h173.8763775a26.75944219 26.75944219 0 0 0 26.75944218-26.7594422A26.75944219 26.75944219 0 0 0 307.14846969 729.98279156H131.03213844l-1.19997469 0.09999845a13.71971437 13.71971437 0 0 1-9.29980594-2.57994656c-1.19997469-0.95998031-4.83989906-3.99991687-4.63990406-13.85971126v-717.60504938l-0.13999688-1.87996125c-0.23999531-2.93993906-0.13999687-3.99991687 0.47999063-4.63990312 1.83996187-1.99995844 6.65986125-1.99995844 8.25982781-1.99995844h275.1342675a26.75944219 26.75944219 0 0 0 26.75944313-26.75944219A26.75944219 26.75944219 0 0 0 399.62654281-66.00062531000003M791.61837687 32.13733031000004l7.75983844-13.21972406a41.27914031 41.27914031 0 0 1 9.17980875-10.97977125 36.29924343 36.29924343 0 0 1 21.55955063-6.65986125 31.99933312 31.99933312 0 0 1 21.67954781 9.25980656c2.75994281 2.71994345 2.75994281 2.71994345 5.63988281 9.11980968l5.89987688 12.93973126 8.31982687 4.23991125a43.25909906 43.25909906 0 0 1 23.05951969 34.63927875 72.11849719 72.11849719 0 0 1-0.53998875 21.99954094 132.77723344 132.77723344 0 0 0-0.93998063 7.69984031v0.49998938c-0.259995 3.599925-0.49998937 7.27984875-0.67998562 10.93977187-0.37999219 6.61986187-0.91998094 15.99966656-2.31995156 29.25939094a42.79910813 42.79910813 0 0 1-12.67973625 25.5594675l-0.23999438 0.23999437a65.99862469 65.99862469 0 0 1-13.45972031 10.29978563l-9.99979125 5.79987937-2.97993844 12.81973313c-0.57998813 2.81994094-1.39997062 6.51986438-2.35995 10.799775l-0.8799825 3.99991594c-2.19995437 9.67979812-4.43990719 19.81958719-6.59986219 29.99937562a568.26816094 568.26816094 0 0 0-2.69994376 13.99970813v0.33999281a164.15658 164.15658 0 0 1-11.2397653 41.21914125 59.33876345 59.33876345 0 0 1-27.05943656 26.83944094 131.51725969 131.51725969 0 0 1-60.99872906 8.31982687l-23.71950563-0.11999812h-104.35782656a62.91868875 62.91868875 0 0 1-27.05943563-10.4397825l-2.69994375-1.7999625a53.998875 53.998875 0 0 1-17.1796425-18.33961782 105.59779969 105.59779969 0 0 1-10.25978625-28.31940937c-10.65977813-45.09906-14.61969562-66.57861281-15.99966656-75.37843031l-1.99995844-12.93973032-11.49976031-6.29986875a52.77890062 52.77890062 0 0 1-27.23943281-43.53909281 433.7909625 433.7909625 0 0 0-1.99995844-18.33961781 164.65656938 164.65656938 0 0 1-0.97997906-49.89896063 41.99912531 41.99912531 0 0 1 22.6795275-29.6193825l8.51982187-4.73990156 3.45992813-9.11980968a37.0792275 37.0792275 0 0 1 6.19987125-10.63977844 39.99916688 39.99916688 0 0 1 24.43949062-11.09976938 29.1593925 29.1593925 0 0 1 19.83958688 6.57986344 35.03926969 35.03926969 0 0 1 9.33980531 10.49978156l7.65984 13.65971531z m38.47919813-84.35824218a88.93814719 88.93814719 0 0 0-55.25884875 18.61961156 89.3781375 89.3781375 0 0 0-12.35974219 12.239745h-137.057145a99.99791625 99.99791625 0 0 0-12.47974031-11.99974969 82.97827125 82.97827125 0 0 0-56.77881656-18.65961094h-0.27999469a91.77808781 91.77808781 0 0 0-62.13870563 29.99937469 88.81814999 88.81814999 0 0 0-11.29976437 17.11964344 93.99804187 93.99804187 0 0 0-40.89914813 60.0987478 205.79571281 205.79571281 0 0 0 0.11999813 67.31859751v0.21999563c0.59998781 5.15989219 1.29997312 11.11976813 1.77996281 16.67965218a106.1977875 106.1977875 0 0 0 43.37909625 78.51836438 1555.16760094 1555.16760094 0 0 0 14.69969344 67.3185975 156.53673844 156.53673844 0 0 0 15.81967031 42.45911531 107.45776125 107.45776125 0 0 0 33.99929156 36.43924125l2.3199525 1.55996719a114.65761125 114.65761125 0 0 0 45.69904782 18.45961593l5.15989218 1.17997501h110.157705l23.99950032 0.13999687a179.99624999 179.99624999 0 0 0 84.21824531-13.53971812h0.17999625a113.17764188 113.17764188 0 0 0 51.81892031-51.35892938 210.23562 210.23562 0 0 0 15.85966969-55.17885094l0.11999719-0.67998562c0.719985-3.99991687 1.51996875-8.2798275 2.37995062-12.43974094 1.99995844-9.83979469 4.25991094-19.71958875 6.43986563-29.25939l0.89998125-3.99991688 0.3599925-1.55996718a119.79750375 119.79750375 0 0 0 13.85971125-11.779755 96.45799031 96.45799031 0 0 0 28.47940686-57.77879625v-0.29999344c1.43997001-13.59971625 1.99995844-22.95952125 2.55994688-32.13933094 0.17999625-3.29993156 0.3599925-6.45986531 0.59998782-9.61979906 0.15999655-1.5399675 0.33999281-3.05993625 0.5599875-4.51990594v-0.53998875a124.73740125 124.73740125 0 0 0 0.57998812-36.37924218 96.79798313 96.79798313 0 0 0-43.11910125-70.1985375 64.95864656 64.95864656 0 0 0-15.33968062-21.83954532 85.39822125 85.39822125 0 0 0-59.15876719-24.5794875M625.42183906 205.63371561999998h27.39942938c23.33951344 0 60.89873156 0 109.99770843 0.17999625a326.99318719 326.99318719 0 0 1-3.19993406 14.21970375c-0.55998844 2.23995375-1.179975 4.29991031-1.75996312 6.27986907l-0.17999624 0.57998812a108.49773938 108.49773938 0 0 0-2.69994376 9.99979219v0.3599925a81.99829125 81.99829125 0 0 1-2.59994532 9.99979125 16.35965906 16.35965906 0 0 1-1.87996125 0.83998219l-114.89760656 1.03997905h-0.3599925l-0.37999125-1.99995843-0.3599925-1.99995844c-0.91998094-4.9398975-1.83996187-8.39982469-2.57994656-11.17976718a111.07768594 111.07768594 0 0 1-1.27997344-5.29989 173.77638 173.77638 0 0 0-1.99995844-8.59982063l-0.31999312-1.35997125c-0.77998406-3.41992875-1.75996313-7.67983969-2.91993938-13.09972687m27.35943-53.51888532h-30.73935936a51.03893625 51.03893625 0 0 0-32.63932032 9.43980282l-0.45999 0.3599925a49.17897562 49.17897562 0 0 0-18.43961626 32.65932l-0.71998499 6.1198725 1.19997468 5.73988031c2.21995406 11.09976844 3.99991687 18.69961031 5.21989125 24.23949469l0.3599925 1.5999675c0.73998469 3.11993531 1.23997406 5.27989031 1.5999675 7.11985125v0.259995c0.55998844 2.59994625 1.179975 5.27989031 1.89996 7.99983281v0.17999625c0.6199875 2.35995094 1.11997687 4.23991125 1.63996594 7.01985375l0.37999219 2.11995562a49.99895813 49.99895813 0 0 0 18.99960375 33.9992925 52.33890938 52.33890938 0 0 0 37.49921906 11.65975688l120.51748875-1.09997719 5.1998925-1.67996531a58.09878938 58.09878938 0 0 0 42.69910969-50.91893906c0.49998937-1.99995844 1.05997781-4.17991312 1.699965-6.23986969l0.31999313-1.11997688c0.67998563-2.29995188 1.51996875-5.1398925 2.35995093-8.45982375v-0.21999562c1.31997281-5.3998875 2.53994719-10.81977469 3.63992438-16.13966344l0.79998281-3.73992186a50.2989525 50.2989525 0 0 0-7.47984375-40.99914658 48.63898688 48.63898688 0 0 0-35.25926532-19.57959187h-2.57994656c-52.95889687-0.11999719-93.31805625-0.17999625-117.99754125-0.17999625M562.24315531 93.2560575a32.19932906 32.19932906 0 0 1-33.19930875-31.19935031 32.19932906 32.19932906 0 0 1 31.17935063-33.19930875h1.99995844a32.19932906 32.19932906 0 0 1 31.19935031 33.19930875 32.19932906 32.19932906 0 0 1-31.19935031 31.19935031M828.61760562 93.2560575a32.21932875 32.21932875 0 0 1-33.19930781-31.19935031 32.19932906 32.19932906 0 0 1 31.19934938-33.19930875h1.99995843a32.21932875 32.21932875 0 0 1 31.19935032 33.19930875 32.21932875 32.21932875 0 0 1-31.19935032 31.19935031M486.58473125 774.38186719a29.13939281 29.13939281 0 0 0-29.07939375-29.07939469 29.13939281 29.13939281 0 0 0-29.07939469 29.07939469v0.75998437 0.73998469a29.13939281 29.13939281 0 0 0 29.07939469 29.07939374 29.13939281 29.13939281 0 0 0 29.07939375-29.05939499v-1.49996812m11.99975063 59.59875843h-82.17828844a43.89908531 43.89908531 0 0 1-32.51932219-42.35911781v-32.91931406a43.89908531 43.89908531 0 0 1 32.43932437-42.3791175h82.25828625a43.89908531 43.89908531 0 0 1 32.43932344 42.3791175V791.6415075A43.89908531 43.89908531 0 0 1 498.58448187 833.98062563M575.16288594 440.52882187H242.96980719a25.31947219 25.31947219 0 0 1-25.37947125-25.37947125 25.31947219 25.31947219 0 0 1 25.37947125-25.37947124h252.49473937c16.79965031 9.99979125 16.11966375 40.6791525 79.65834 50.73894375M391.38671469 603.06543657H245.86974594a26.39944969 26.39944969 0 0 1-26.4794475-25.33947282 27.4594275 27.4594275 0 0 1 26.59944562-26.59944562h422.97118782a27.53942625 27.53942625 0 0 1 26.59944562 26.59944562 26.39944969 26.39944969 0 0 1-26.65944469 25.3394728h-141.99704156"  horiz-adv-x="1024" />

    
    <glyph glyph-name="yonggongzongliang1" unicode="&#58945;" d="M941.12 356.009l-414.3-192.822a31.609 31.609 0 0 0-28.407-0.677L83.177 356.084c-15.636 7.29-22.639 25.36-15.642 40.361s25.346 21.255 40.982 13.965l403.421-188.067 403.823 187.945c15.648 7.283 34.011 1.036 41.013-13.953s-0.005-33.043-15.654-40.326z m18.264 205.661a28.53 28.53 0 0 0-6.288-16.122q-0.448-0.556-0.921-1.088a32.143 32.143 0 0 0-11.055-8.473l-414.3-192.822a31.609 31.609 0 0 0-28.407-0.677L83.177 536.062A32.561 32.561 0 0 0 78.3 538.9a28.968 28.968 0 0 0-11.074 12.428c-7 15.015 0.006 33.1 15.647 40.4L498.25 785.465a31.608 31.608 0 0 0 28.417-0.677L941.114 591.8a32.165 32.165 0 0 0 11.577-9.094l0.04-0.047c0.167-0.21 0.341-0.416 0.5-0.63a28.473 28.473 0 0 0 6.15-15.931c0.008-0.092 0.013-0.182 0.02-0.274 0.039-0.648 0.061-1.3 0.056-1.943s-0.017-1.3-0.056-1.945c-0.001-0.089-0.01-0.177-0.017-0.266z m-447.6 163.911L165.237 563.946l346.7-161.625 347.116 161.552zM108.517 230.432l403.421-188.067L915.761 230.31c15.648 7.283 34.011 1.036 41.013-13.953s0-33.043-15.654-40.326l-414.3-192.822a31.606 31.606 0 0 0-28.407-0.676L83.177 176.107c-15.636 7.289-22.639 25.359-15.642 40.361s25.346 21.253 40.982 13.964z"  horiz-adv-x="1024" />

    
    <glyph glyph-name="tianjiayonghu1" unicode="&#58947;" d="M898.51041433 327.37214393L680.43498874 327.37214393c-8.5085126 0-15.40571154 6.89719895-15.40571154 15.40571154s6.89719895 15.40571154 15.40571154 15.40571154l218.07626934 0c8.5085126 0 15.40571154-6.89719895 15.40571155-15.40571154S907.01892695 327.37214393 898.51041433 327.37214393zM789.47059381 218.33147964c-8.5085126 0-15.40571154 6.89719895-15.40571155 15.40571155L774.06488227 451.81430347c0 8.5085126 6.89719895 15.40571154 15.40571154 15.40571155s15.40571154-6.89719895 15.40571156-15.40571155l0-218.07711228C804.87546162 225.22867858999996 797.97910642 218.33147964 789.47059381 218.33147964zM662.78979578 4.509045140000012c-2.89969025 0-5.8322645 0.81704004-8.4376854 2.52700569-29.24816941 19.19242529-77.06565555 21.06175177-80.03280047 21.15871711l-18.18735672 0-29.07616141-0.22344213c-0.03962905 0-0.07841519 0-0.11804508 0L133.23080569 27.971324979999963c-8.5085126 0-15.40571154 6.89719895-15.40571154 15.40571154l0 18.51282341c-0.26222828 5.16362393-0.7504291 33.45647305 17.30707827 64.52337854 11.30196203 19.44453516 27.54663629 36.14030915 48.28376349 49.62441714 25.12587058 16.33826623 56.95079397 27.94039975 94.59027384 34.48262054 0.19224481 0.032884 0.38448963 0.06239548 0.57757736 0.08853361 0.28583762 0.03878614 29.250699 4.00341083 58.67340683 11.75980847 50.99964066 13.44616479 55.46005417 25.33244925 55.49125232 25.44880847 0.30017148 1.17876324 0.73693817 2.31115155 1.29680831 3.37439932 0.41821656 2.22514755 1.45363953 10.59537909-0.52530029 33.02476556-5.02702954 56.97018704-34.70774936 90.63745422-58.5562055 117.68998755-7.51862082 8.52959234-14.62155551 16.58531772-20.09125305 24.48505564-23.59887506 34.09138586-25.78860901 72.85482312-25.87039756 74.48805945-0.01264802 0.25632614-0.01855014 0.51265228-0.01855014 0.76897842 0 15.47485207 7.71592483 22.59380649 14.52374643 28.87464194l0.35666483 0.3288392c0.22428506 0.20657868 0.36509656 0.36088027 0.44772802 0.45953228 0.07757227 1.10540644-0.46796402 3.91319055-0.8364331 5.8094989-0.13912482 0.7150155-0.27824881 1.43340353-0.41147067 2.1551641-5.91405304 32.13099619-6.31709198 81.74192239-0.96628244 113.5803359 1.98568488 41.86633365 38.08973749 73.9206005 39.6386565 75.27558802 0.05733627 0.0505904 0.11551548 0.10033786 0.17369466 0.1492424 5.18386074 4.40139057 10.44192041 9.20835049 13.78343573 14.53470777 0.4013531 0.63912909 0.6821315 1.13491792 0.8794347 1.5135054-0.25211069 0.64840374-0.61130429 1.4780918-0.90220111 2.14926113-2.00760755 4.62989191-5.04136341 11.62574287-3.3153772 20.61908295 1.04132511 5.42922556 5.0084794 15.13083527 19.87371304 19.09545913 5.98319358 1.59613687 12.37954449 1.92244648 17.04990921 2.16022248l0.92412378 0.0480608c18.44705539 0.9704979 38.12768069 1.79259714 58.03259106 0.26728747 143.97354246-11.03804709 193.56844812-64.83535428 195.60893967-67.12036772 0.11551548-0.12816348 0.22765842-0.25885574 0.33727093-0.39123466 11.52793377-13.81126135 20.06680078-31.01378549 25.37882419-51.13201961 1.655159-6.25975571 2.7217793-11.53130713 3.343202-16.5397857 5.0337746-29.24226727 4.19143936-59.25772925 3.11554358-79.32537378-0.60202963-11.26317591-1.85836514-23.09128198-3.95366336-37.22210705-0.56998855-3.83646121 0.05649335-4.58520364 0.29258267-4.86682498 0.62479523-0.7478995 1.3895582-1.55987951 2.19985236-2.41907822 3.18046866-3.37608599 7.53801389-7.99923285 9.85675424-15.41667288 1.16695898-3.73949587 1.70827898-7.73616082 1.70827899-12.58865277 0-0.25716907-0.00674506-0.51349521-0.01855013-0.7706651-0.08178855-1.63407925-2.2740521-40.39583066-25.87208341-74.48468691-5.47054129-7.90226753-12.57431809-15.95967956-20.09546933-24.49095778-23.84676947-27.0516904-53.52580343-60.71811465-58.55283215-117.68577127-1.97893982-22.42854355-0.9426731-30.79877509-0.5253003-33.02392263 0.55987014-1.0640907 0.99663684-2.19563608 1.29680833-3.37439932 0.03035439-0.1163584 4.50763137-12.04142981 55.73998965-25.51373274 29.42017822-7.73616082 58.13798895-11.65609726 58.42466948-11.69488339 0.25042402-0.03372693 0.5000051-0.07419973 0.74874244-0.11973092 37.98181082-7.04475467 70.00235074-18.94453088 95.17375333-35.3679582 20.80711147-13.57601413 37.02143051-30.24143372 48.19438696-49.53251101 17.71686309-30.59303933 16.99594546-58.26699536 16.64096732-63.81173557l0-18.40152337c0-8.5085126-6.89719895-15.40571154-15.40571156-15.40571155L738.05104993 27.96879537999996c-0.89545522 0-1.774047 0.07672934-2.62734358 0.22344214l-23.93867559 0c-8.5085126 0-15.40571154 6.89719895-15.40571154 15.40571155s6.89719895 15.40571154 15.40571154 15.40571155l42.92283554 0c0.89545522 0 1.77320407-0.07672934 2.62650065-0.22344214l69.43404885 0L826.4684158 62.33252792999997c0 0.56577227 0.0075888 0.91147577 0.06745385 1.45785498 0.086004 1.24284458 1.34065366 23.34507852-13.47145998 47.89843094-8.91576782 14.77922964-21.90914539 27.6933491-38.62009698 38.38147723-21.50694937 13.754768-49.24245713 23.86869214-82.44091737 30.06099398-3.82044067 0.52951575-32.14448712 4.58436072-61.86567975 12.40905515-58.30493774 15.35006113-72.47876605 32.42526553-76.78487713 44.81914389-3.30019958 6.39888053-5.14676047 19.11147968-2.46039395 49.56623795 5.91658264 67.04616797 40.72045441 106.52546283 66.13384845 135.35204397 7.20664508 8.17545712 13.43183093 15.23623233 17.87453723 21.65450592 17.59881802 25.4243562 20.16292319 54.66240802 20.40913175 58.14557694-0.02360934 1.80440139-0.19730402 2.63240277-0.303544 2.97388999-0.19898987 0.63659948-1.55819367 2.07843476-2.87186546 3.47389507-1.03205045 1.09444509-2.19985236 2.33476089-3.41065668 3.78165454-6.55065253 7.83144031-8.88456967 17.36863-7.13581787 29.15626327 1.95111502 13.15273837 3.11554357 24.06599616 3.66529614 34.34602616 1.00085229 18.6620658 1.80018594 46.50971648-2.77152676 72.7907418-0.04721787 0.26897415-0.08684775 0.53963416-0.11973093 0.81113791-0.43929629 3.67625748-1.26223764 7.72688617-2.58940035 12.7463269-4.10712122 15.55579687-10.48660867 28.64698352-18.9605506 38.91858178-1.4123238 1.44014858-12.67718637 12.46301889-37.80727323 24.45217163-45.22218283 21.57440406-99.52876977 29.53906623-137.12356137 32.42189301-18.07184124 1.384499-36.61501904 0.60287256-54.06037839-0.3153491l-0.97134164-0.04974746c-1.45701205-0.07419973-3.90475882-0.19898987-6.23108798-0.43339334 2.01772596-4.81286206 4.49329751-12.05745035 1.89293499-20.711832-0.9780867-3.25045212-2.47725824-6.42586239-4.7184255-9.99672199-5.54305435-8.83650888-13.11563891-15.84500702-19.81469091-21.53983337-1.29427871-1.16780191-28.20262884-25.82486555-29.13012517-54.16577546-0.02360934-0.7175451-0.09696533-1.43171686-0.2200696-2.13830061-4.9199458-28.26333765-4.58857617-74.79834934 0.73778109-103.73622969 0.11467254-0.61889309 0.2352464-1.24284458 0.35582108-1.86258059 1.634923-8.4123902 4.37103616-22.49262488-8.96129901-34.78953791l-0.35835067-0.33052587c-1.71924033-1.58601847-4.07339429-3.75888894-4.46378605-4.50678846l0 0c0.0025296 0-0.10961334-0.35160562-0.13575146-1.30524005 0.27066001-3.53966226 3.01098944-33.00874503 20.40491546-58.13630228 4.44186338-6.41405732 10.66536255-13.4739896 17.8711647-21.64776004 25.41339487-28.82742407 60.21810955-68.30840561 66.13553513-135.35625942 2.68636652-30.4530716 0.83980564-43.16735742-2.46039395-49.56708088-4.30526816-12.39387836-18.47909647-29.46908276-76.78487714-44.81914389-29.96402783-7.88877658-58.50730096-11.9453074-61.95421417-12.42086023-33.3898613-5.8322645-61.24594373-15.89475449-82.79926803-29.91006491-16.65361533-10.82978257-29.58712784-24.04491641-38.44218604-39.27861914-14.52711895-24.99349163-13.20164291-47.14125677-13.18477945-47.35795386 0.03372693-0.41147067 0.04974746-0.82547178 0.04974747-1.23947204l0-3.5506236 378.23377643 0 29.0761614 0.22344214c0.03878614 0 0.07841519 0 0.11804508 0l18.47656687 0c0.1163584 0 0.23103095-0.00084293 0.34738933-0.00421627 2.38619504-0.05312 58.87324045-1.60119525 96.36685044-26.20513889 7.11389521-4.66783511 9.09620754-14.21767283 4.42837243-21.33156885C672.72580896 6.955948140000032 667.80670691 4.509045140000012 662.78979578 4.509045140000012zM398.00566299 256.00805978000005c-0.40388269-0.3263096-0.77235096-0.65514963-1.10540643-0.98230297C397.25186136 255.36893068999996 397.62117419 255.69776990000003 398.00566299 256.00805978000005zM577.12793696 255.98445044000005c0.37099868-0.3010144 0.72766269-0.61804934 1.06830696-0.95110483C577.87330686 255.34953761999998 577.51748578 255.66910216999997 577.12793696 255.98445044000005z"  horiz-adv-x="1024" />

    
    </font>
</defs>
</svg>
